<svg id="Group_4136" data-name="Group 4136" xmlns="http://www.w3.org/2000/svg" width="89.173" height="30" viewBox="0 0 89.173 30">
  <g id="COiN" transform="translate(30.173 1)" style="isolation: isolate">
    <text id="COiN-2" data-name="COiN" transform="translate(0 23)" fill="#214497" font-size="23.55" font-family="Lato-Bold, Lato" font-weight="700" style="isolation: isolate"><tspan x="0" y="0">COiN</tspan></text>
  </g>
  <g id="Grupo_2100" data-name="Grupo 2100">
    <g id="Grupo_539" data-name="Grupo 539">
      <g id="Grupo_538" data-name="Grupo 538">
        <g id="Grupo_537" data-name="Grupo 537">
          <g id="Grupo_536" data-name="Grupo 536">
            <path id="Trazado_157" data-name="Trazado 157" d="M624.891,368.9a14.993,14.993,0,1,0,.111,0Zm-.181,28.141a13.14,13.14,0,1,1,13.234-13.046v.046A13.189,13.189,0,0,1,624.71,397.039Z" transform="translate(-609.808 -368.898)" fill="#fdb415"/>
          </g>
        </g>
      </g>
    </g>
    <g id="Grupo_540" data-name="Grupo 540" transform="translate(6.854 5.923)">
      <path id="Trazado_158" data-name="Trazado 158" d="M632.569,376.91a2.124,2.124,0,0,0-2.164-2.084h-.054a2.085,2.085,0,0,0-.318,4.157,2.395,2.395,0,0,0,2.536-2.074Z" transform="translate(-616.662 -374.821)" fill="#fdb415"/>
      <path id="Trazado_159" data-name="Trazado 159" d="M626.651,382.248l2.237.015v4.8s-9.453-10.843-9.524-10.919a.67.67,0,0,0-.945-.04l-.031.014-.029.019c-.3.19-1.005.587-1.268.8a.981.981,0,0,0-.429.78v.014l.052,14.953h3.993v-9.246l8.233,9.392h3.632V379.177Z" transform="translate(-616.662 -374.821)" fill="#fdb415"/>
    </g>
    <rect id="Rectángulo_58" data-name="Rectángulo 58" width="1.572" height="1.413" transform="translate(22.642 14.777)" fill="#fdb415"/>
    <rect id="Rectángulo_59" data-name="Rectángulo 59" width="1.572" height="1.413" transform="translate(22.642 17.532)" fill="#fdb415"/>
    <rect id="Rectángulo_60" data-name="Rectángulo 60" width="1.572" height="1.413" transform="translate(5.402 14.777)" fill="#fdb415"/>
    <rect id="Rectángulo_61" data-name="Rectángulo 61" width="1.572" height="1.413" transform="translate(5.402 17.532)" fill="#fdb415"/>
  </g>
</svg>
