<svg xmlns="http://www.w3.org/2000/svg" width="40" height="40" viewBox="0 0 40 40">
  <g id="Group_4680" data-name="Group 4680" transform="translate(-203.771 -155.727)">
    <g id="Ellipse_160" data-name="Ellipse 160" transform="translate(210 161.956)" fill="#fff" stroke="#e7e7e7" stroke-width="1">
      <circle cx="13.771" cy="13.771" r="13.771" stroke="none"/>
      <circle cx="13.771" cy="13.771" r="13.271" fill="none"/>
    </g>
    <g id="photo_camera_black_24dp" transform="translate(203.771 155.727)">
      <path id="Path_4057" data-name="Path 4057" d="M0,0H40V40H0Z" fill="none"/>
    </g>
    <g id="file_upload_black_24dp" transform="translate(211.771 163.727)">
      <g id="Group_4653" data-name="Group 4653">
        <rect id="Rectangle_1689" data-name="Rectangle 1689" width="24" height="24" fill="none"/>
      </g>
      <g id="Group_4654" data-name="Group 4654" transform="translate(4 4)">
        <path id="Path_4063" data-name="Path 4063" d="M18,15v3H6V15H4v3a2.006,2.006,0,0,0,2,2H18a2.006,2.006,0,0,0,2-2V15ZM7,9l1.41,1.41L11,7.83V16h2V7.83l2.59,2.58L17,9,12,4Z" transform="translate(-4 -4)" fill="#214497"/>
      </g>
    </g>
  </g>
</svg>
