<svg id="receipt_black_24dp" xmlns="http://www.w3.org/2000/svg" width="25" height="25" viewBox="0 0 25 25">
  <path id="Path_2249" data-name="Path 2249" d="M0,0H25V25H0Z" fill="none"/>
  <path id="Path_2250" data-name="Path 2250" d="M20.417,3.575,18.833,2,17.25,3.575,15.667,2,14.083,3.575,12.5,2,10.917,3.575,9.333,2,7.75,3.575,6.167,2,4.583,3.575,3,2V23l1.583-1.575L6.167,23,7.75,21.425,9.333,23l1.583-1.575L12.5,23l1.583-1.575L15.667,23l1.583-1.575L18.833,23l1.583-1.575L22,23V2Zm-.528,16.369H5.111V5.055H19.889ZM6.167,15.65H18.833v2.1H6.167Zm0-4.2H18.833v2.1H6.167Zm0-4.2H18.833v2.1H6.167Z" fill="#fdb415"/>
</svg>
