<svg xmlns="http://www.w3.org/2000/svg" xmlns:xlink="http://www.w3.org/1999/xlink" width="135.746" height="500.149" viewBox="0 0 135.746 500.149"><defs><style>.a,.f{fill:none;}.b{fill:#565d6d;font-family:SourceSansPro-Regular, Source Sans Pro;}.b,.g{font-size:16px;}.c{fill:#ffb506;}.d{clip-path:url(#a);}.e{fill:#fdb415;}.f{stroke:#003167;stroke-width:2px;}.g,.i{fill:#003167;}.g{font-family:SourceSansPro-Semibold, Source Sans Pro;font-weight:600;}.h{fill:#2a99fb;opacity:0;}.j{stroke:none;}</style><clipPath id="a"><rect class="a" width="12.833" height="12.833" transform="translate(69.504 68.475)"/></clipPath></defs><g transform="translate(20392.754 4006)"><text class="b" transform="translate(-20346.008 -3800)"><tspan x="0" y="0">Balances</tspan></text><text class="b" transform="translate(-20346.008 -3752)"><tspan x="0" y="0">Payments</tspan></text><text class="b" transform="translate(-20346.008 -3706)"><tspan x="0" y="0">Invoices</tspan></text><text class="b" transform="translate(-20346.008 -3661)"><tspan x="0" y="0">Pay Request</tspan></text><text class="b" transform="translate(-20346.008 -3616)"><tspan x="0" y="0">Settings</tspan></text><text class="b" transform="translate(-20346.008 -3935)"><tspan x="0" y="0">Dashboard</tspan></text><g transform="translate(-22292.383 -4205.136)"><g transform="translate(1909.376 249.285)"><path class="c" d="M1934.381,271.137h-22a1.093,1.093,0,0,1-.93-.519,14,14,0,1,1,23.861,0A1.093,1.093,0,0,1,1934.381,271.137Zm-21.371-2.185h20.741a11.819,11.819,0,1,0-20.741,0Z" transform="translate(-1909.376 -249.285)"/></g><g transform="translate(1922.126 259.602)"><rect class="c" width="2.5" height="8.438"/></g><g transform="translate(1927.852 263.315)"><path class="c" d="M1935.025,268.94a1.255,1.255,0,0,1-.34-.047l-2.659-.75a1.25,1.25,0,1,1,.678-2.406l2.66.75a1.25,1.25,0,0,1-.339,2.453Z" transform="translate(-1931.115 -265.69)"/></g><g transform="translate(1926.698 256.601)"><path class="c" d="M1930.961,262.053a1.25,1.25,0,0,1-.73-2.266l2.3-1.65a1.25,1.25,0,1,1,1.458,2.031l-2.3,1.65A1.245,1.245,0,0,1,1930.961,262.053Z" transform="translate(-1929.71 -257.903)"/></g><g transform="translate(1922.055 253.355)"><path class="c" d="M1925.321,259.167h-.064a1.249,1.249,0,0,1-1.185-1.312l.128-2.55a1.25,1.25,0,0,1,2.5.126l-.129,2.551A1.25,1.25,0,0,1,1925.321,259.167Z" transform="translate(-1924.07 -254.117)"/></g><g transform="translate(1915.376 256.468)"><path class="c" d="M1919.517,261.9a1.242,1.242,0,0,1-.827-.314l-1.867-1.65a1.25,1.25,0,1,1,1.655-1.873l1.867,1.65a1.25,1.25,0,0,1-.828,2.187Z" transform="translate(-1916.4 -257.745)"/></g><g transform="translate(1913.562 263.308)"><path class="c" d="M1915.546,268.6a1.25,1.25,0,0,1-.214-2.482l2.561-.45a1.25,1.25,0,1,1,.432,2.462l-2.561.45A1.245,1.245,0,0,1,1915.546,268.6Z" transform="translate(-1914.298 -265.644)"/></g></g><text class="b" transform="translate(-20346.008 -3848)"><tspan x="0" y="0">Contacts</tspan></text><g transform="translate(-20444.51 -3697.5)"><path class="c" d="M88.5,76.988V73.012H86.014a10.153,10.153,0,0,0-1.527-3.685l1.759-1.76-2.812-2.812-1.759,1.76a10.145,10.145,0,0,0-3.685-1.528V62.5H74.014v2.487a10.142,10.142,0,0,0-3.686,1.528l-1.758-1.76-2.812,2.812,1.759,1.76a10.119,10.119,0,0,0-1.527,3.685H63.5v3.976H65.99a10.131,10.131,0,0,0,1.527,3.686l-1.759,1.759,2.812,2.811,1.758-1.759a10.141,10.141,0,0,0,3.686,1.527V87.5H77.99V85.012a10.143,10.143,0,0,0,3.685-1.527l1.759,1.759,2.812-2.811-1.759-1.759a10.165,10.165,0,0,0,1.527-3.686ZM76,80.739A5.739,5.739,0,1,1,81.741,75,5.739,5.739,0,0,1,76,80.739Z"/><g class="d"><g class="d"><path class="e" d="M75.956,68.475a6.417,6.417,0,1,0,6.381,6.471,6.4,6.4,0,0,0-6.381-6.471m-.077,12.038a5.621,5.621,0,1,1,5.661-5.561,5.642,5.642,0,0,1-5.661,5.561"/><path class="e" d="M79.241,71.9a.909.909,0,0,0-.949-.891.892.892,0,1,0-.011,1.779.937.937,0,0,0,.96-.888"/><path class="e" d="M76.709,74.186l.957.006v2.055s-4.044-4.639-4.074-4.672a.286.286,0,0,0-.4-.017l-.013.006-.013.008c-.127.081-.43.251-.542.341a.418.418,0,0,0-.184.333v.007l.022,6.4h1.708V74.694l3.521,4.018h1.554V72.871Z"/><rect class="e" width="0.672" height="0.604" transform="translate(79.19 74.796)"/><rect class="e" width="0.672" height="0.604" transform="translate(79.19 75.975)"/><rect class="e" width="0.672" height="0.604" transform="translate(71.815 74.796)"/><rect class="e" width="0.672" height="0.604" transform="translate(71.815 75.975)"/></g></g></g><g transform="translate(-20493.309 -4053.926)"><path class="e" d="M128.606,72.926a1.25,1.25,0,0,1-1.25-1.25v-5.44a2.831,2.831,0,0,0-5.661,0v5.44a1.25,1.25,0,0,1-2.5,0v-5.44a5.331,5.331,0,0,1,10.661,0v5.44A1.25,1.25,0,0,1,128.606,72.926Z"/><path class="e" d="M134.5,72.926H114.553a1.25,1.25,0,0,1-1.25-1.25V57.061a1.25,1.25,0,0,1,.48-.985l10.088-7.885a1.25,1.25,0,0,1,1.548.007l9.855,7.832a1.249,1.249,0,0,1,.475.98V71.676A1.25,1.25,0,0,1,134.5,72.926Zm-18.7-2.5h17.446V57.615l-8.614-6.847-8.832,6.9Z"/></g><text class="b" transform="translate(-20346.008 -3982)"><tspan x="0" y="0">Home</tspan></text><g transform="translate(-20381.008 -3590)"><rect class="a" width="24" height="24"/><path class="c" d="M21,12.22a9,9,0,1,0-18,.06A1.968,1.968,0,0,0,2,14v2a2.006,2.006,0,0,0,2,2H5V11.9a7,7,0,0,1,14,0V19H11v2h8a2.006,2.006,0,0,0,2-2V17.78a1.849,1.849,0,0,0,1-1.64v-2.3A1.841,1.841,0,0,0,21,12.22Z"/><circle class="c" cx="1" cy="1" r="1" transform="translate(8 12)"/><circle class="c" cx="1" cy="1" r="1" transform="translate(14 12)"/><path class="c" d="M18,11.03A6.039,6.039,0,0,0,6.02,12.45a8.075,8.075,0,0,0,4.86-5.89A8.037,8.037,0,0,0,18,11.03Z"/></g><text class="b" transform="translate(-20346.008 -3572)"><tspan x="0" y="0">Support</tspan></text><g transform="translate(-20381.008 -3822)"><path class="a" d="M0,0H25V25H0Z"/><path class="e" d="M6.737,10.45H4.632V17.8H6.737Zm6.316,0H10.947V17.8h2.105ZM22,19.9H2V22H22Zm-2.632-9.45H17.263V17.8h2.105ZM12,3.373,17.484,6.25H6.516L12,3.373M12,1,2,6.25v2.1H22V6.25Z"/></g><g transform="translate(-20381.008 -3774)"><rect class="a" width="25" height="25"/><path class="e" d="M19.818,14.625v-8.5A2.114,2.114,0,0,0,17.727,4H3.091A2.114,2.114,0,0,0,1,6.125v8.5A2.114,2.114,0,0,0,3.091,16.75H17.727A2.114,2.114,0,0,0,19.818,14.625Zm-2.091,0H3.091v-8.5H17.727ZM10.409,7.188a3.188,3.188,0,1,0,3.136,3.188A3.158,3.158,0,0,0,10.409,7.188ZM24,7.188V18.875A2.114,2.114,0,0,1,21.909,21H4.136V18.875H21.909V7.188Z"/></g><g transform="translate(-20381.008 -3726)"><path class="a" d="M0,0H25V25H0Z"/><path class="e" d="M20.417,3.575,18.833,2,17.25,3.575,15.667,2,14.083,3.575,12.5,2,10.917,3.575,9.333,2,7.75,3.575,6.167,2,4.583,3.575,3,2V23l1.583-1.575L6.167,23,7.75,21.425,9.333,23l1.583-1.575L12.5,23l1.583-1.575L15.667,23l1.583-1.575L18.833,23l1.583-1.575L22,23V2Zm-.528,16.369H5.111V5.055H19.889ZM6.167,15.65H18.833v2.1H6.167Zm0-4.2H18.833v2.1H6.167Zm0-4.2H18.833v2.1H6.167Z"/></g><g transform="translate(-20392.754 -3545.851)"><g class="f"><rect class="j" width="135.746" height="40" rx="4"/><rect class="a" x="1" y="1" width="133.746" height="38" rx="3"/></g><g transform="translate(9 8)"><text class="g" transform="translate(41.746 16)"><tspan x="0" y="0">Actions</tspan></text><rect class="h" width="24" height="24"/><path class="i" d="M8,17V10H1A1,1,0,1,1,1,8H8V1a1,1,0,1,1,2,0V8h7a1,1,0,0,1,0,2H10v7a1,1,0,0,1-2,0Z" transform="translate(3 3)"/></g><path class="i" d="M8.5,13,12,9H5Z" transform="translate(108.848 11)"/></g><g transform="translate(-20381.008 -3680)"><path class="a" d="M0,0H24V24H0Z"/><path class="c" d="M18,16.08a2.912,2.912,0,0,0-1.96.77L8.91,12.7A3.274,3.274,0,0,0,9,12a3.274,3.274,0,0,0-.09-.7l7.05-4.11A2.993,2.993,0,1,0,15,5a3.274,3.274,0,0,0,.09.7L8.04,9.81a3,3,0,1,0,0,4.38l7.12,4.16a2.821,2.821,0,0,0-.08.65A2.92,2.92,0,1,0,18,16.08ZM18,4a1,1,0,1,1-1,1A1,1,0,0,1,18,4ZM6,13a1,1,0,1,1,1-1A1,1,0,0,1,6,13Zm12,7.02a1,1,0,1,1,1-1A1,1,0,0,1,18,20.02Z"/></g><g transform="translate(-20381.008 -3866)"><path class="a" d="M0,0H24V24H0Z"/><path class="c" d="M20,4H4A2.006,2.006,0,0,0,2,6V18a2.006,2.006,0,0,0,2,2H20a2.006,2.006,0,0,0,2-2V6A2.006,2.006,0,0,0,20,4Zm0,14H4V6H20ZM4,0H20V2H4ZM4,22H20v2H4Zm8-10A2.5,2.5,0,1,0,9.5,9.5,2.5,2.5,0,0,0,12,12Zm0-3.5a1,1,0,1,1-1,1A1,1,0,0,1,12,8.5Zm5,7.49C17,13.9,13.69,13,12,13s-5,.9-5,2.99V17H17ZM8.81,15.5a5.6,5.6,0,0,1,6.39,0Z"/></g><text class="b" transform="translate(-20349.008 -3892)"><tspan x="0" y="0">Messages</tspan></text><g transform="translate(-20383.008 -3909)"><path class="a" d="M0,0H24V24H0Z"/><path class="c" d="M22,6a2.006,2.006,0,0,0-2-2H4A2.006,2.006,0,0,0,2,6V18a2.006,2.006,0,0,0,2,2H20a2.006,2.006,0,0,0,2-2ZM20,6l-8,4.99L4,6Zm0,12H4V8l8,5,8-5Z"/></g></g></svg>