<svg xmlns="http://www.w3.org/2000/svg" xmlns:xlink="http://www.w3.org/1999/xlink" width="8" height="8" viewBox="0 0 8 8">
  <defs>
    <clipPath id="clip-path">
      <rect id="Rectangle_117" data-name="Rectangle 117" width="8" height="8" fill="#ffb506"/>
    </clipPath>
  </defs>
  <g id="Group_5746" data-name="Group 5746" transform="translate(39.961 -9)">
    <g id="Path_4105" data-name="Path 4105" transform="translate(-39.961 9)" fill="#214497">
      <path d="M 4 7.5 C 2.070090055465698 7.5 0.5 5.929910182952881 0.5 4 C 0.5 2.070090055465698 2.070090055465698 0.5 4 0.5 C 5.929910182952881 0.5 7.5 2.070090055465698 7.5 4 C 7.5 5.929910182952881 5.929910182952881 7.5 4 7.5 Z" stroke="none"/>
      <path d="M 4 1 C 2.345789909362793 1 1 2.345789909362793 1 4 C 1 5.654210090637207 2.345789909362793 7 4 7 C 5.654210090637207 7 7 5.654210090637207 7 4 C 7 2.345789909362793 5.654210090637207 1 4 1 M 4 0 C 6.209139823913574 0 8 1.790860176086426 8 4 C 8 6.209139823913574 6.209139823913574 8 4 8 C 1.790860176086426 8 0 6.209139823913574 0 4 C 0 1.790860176086426 1.790860176086426 0 4 0 Z" stroke="none" fill="#214497"/>
    </g>
    <g id="Artwork_137" data-name="Artwork 137" transform="translate(-39.961 9)">
      <g id="Group_599" data-name="Group 599" transform="translate(0 0)">
        <g id="Group_598" data-name="Group 598" clip-path="url(#clip-path)">
          <g id="Group_597" data-name="Group 597">
            <g id="Group_596" data-name="Group 596" clip-path="url(#clip-path)">
              <path id="Path_184" data-name="Path 184" d="M73.526,68.475A4,4,0,1,0,77.5,72.509a3.992,3.992,0,0,0-3.978-4.034m-.048,7.5a3.5,3.5,0,1,1,3.529-3.467,3.517,3.517,0,0,1-3.529,3.467" transform="translate(-69.504 -68.475)" fill="#ffb506"/>
              <path id="Path_185" data-name="Path 185" d="M78.522,71.567a.567.567,0,0,0-.592-.555.556.556,0,1,0-.007,1.109.584.584,0,0,0,.6-.554" transform="translate(-72.452 -69.43)" fill="#ffb506"/>
              <path id="Path_186" data-name="Path 186" d="M75.1,73.169l.6,0v1.281l-2.54-2.912a.178.178,0,0,0-.252-.011l-.008,0-.008,0c-.079.051-.268.156-.338.213a.261.261,0,0,0-.115.208v0l.014,3.987h1.065V73.486l2.195,2.5h.969V72.349Z" transform="translate(-70.608 -69.609)" fill="#ffb506"/>
              <rect id="Rectangle_112" data-name="Rectangle 112" width="0.419" height="0.377" transform="translate(6.038 3.941)" fill="#ffb506"/>
              <rect id="Rectangle_113" data-name="Rectangle 113" width="0.419" height="0.377" transform="translate(6.038 4.675)" fill="#ffb506"/>
              <rect id="Rectangle_114" data-name="Rectangle 114" width="0.419" height="0.377" transform="translate(1.441 3.941)" fill="#ffb506"/>
              <rect id="Rectangle_115" data-name="Rectangle 115" width="0.419" height="0.377" transform="translate(1.441 4.675)" fill="#ffb506"/>
            </g>
          </g>
        </g>
      </g>
    </g>
  </g>
</svg>
