<svg xmlns="http://www.w3.org/2000/svg" width="28.782" height="28.633" viewBox="0 0 28.782 28.633"><defs><style>.a{fill:#ffb506;}</style></defs><g transform="translate(-7.435 -7.396)"><path class="a" d="M35.085,16.139a14.416,14.416,0,0,0-26.52,0,14.3,14.3,0,0,0,0,11.145,14.425,14.425,0,0,0,21.307,6.3,14.4,14.4,0,0,0,3.886-3.865,14.274,14.274,0,0,0,1.326-13.578ZM21.826,34A12.289,12.289,0,1,1,34.179,21.712,12.335,12.335,0,0,1,21.826,34Z" transform="translate(0 0)"/><path class="a" d="M17.791,26.024l-1.4-1.745h-4.12l3.269,4.6h3.473V29.9h1.91V28.874H21.98V29.9h1.91V28.874h2.792l2.212-3.019-3.587-5.087-1.417-.086V16.463h.285l1.088,1.477,4.28.05-3.126-4.377H23.89V12.63H21.98v.984H20.925V12.63h-1.91v.984H15.864l-2.292,3.4,4.2,6.155,1.247.076v2.781Zm6.968-.273-.221.273H23.89v-1.5Zm-2.78-9.289v4.1L20.925,20.5V16.463Zm-4.336.612.454-.612h.917v2.623Zm3.281,6.284,1.055.064v2.6H20.925Z" transform="translate(0.703 0.761)"/></g></svg>