<svg xmlns="http://www.w3.org/2000/svg" width="25" height="25" viewBox="0 0 25 25"><defs><style>.a{fill:none;}.b{fill:#fdb415;}</style></defs><rect class="a" width="25" height="25"/><path class="b" d="M19.818,14.625v-8.5A2.114,2.114,0,0,0,17.727,4H3.091A2.114,2.114,0,0,0,1,6.125v8.5A2.114,2.114,0,0,0,3.091,16.75H17.727A2.114,2.114,0,0,0,19.818,14.625Zm-2.091,0H3.091v-8.5H17.727ZM10.409,7.188a3.188,3.188,0,1,0,3.136,3.188A3.158,3.158,0,0,0,10.409,7.188ZM24,7.188V18.875A2.114,2.114,0,0,1,21.909,21H4.136V18.875H21.909V7.188Z"/></svg>