<svg id="Group_600" data-name="Group 600" xmlns="http://www.w3.org/2000/svg" xmlns:xlink="http://www.w3.org/1999/xlink" width="25" height="25" viewBox="0 0 25 25">
  <defs>
    <clipPath id="clip-path">
      <rect id="Rectangle_117" data-name="Rectangle 117" width="12.833" height="12.833" fill="none"/>
    </clipPath>
  </defs>
  <g id="Group_595" data-name="Group 595">
    <path id="Path_183" data-name="Path 183" d="M88.5,76.988V73.012H86.014a10.153,10.153,0,0,0-1.527-3.685l1.759-1.76-2.812-2.812-1.759,1.76a10.145,10.145,0,0,0-3.685-1.528V62.5H74.014v2.487a10.142,10.142,0,0,0-3.686,1.528l-1.758-1.76-2.812,2.812,1.759,1.76a10.119,10.119,0,0,0-1.527,3.685H63.5v3.976H65.99a10.131,10.131,0,0,0,1.527,3.686l-1.759,1.759,2.812,2.811,1.758-1.759a10.141,10.141,0,0,0,3.686,1.527V87.5H77.99V85.012a10.143,10.143,0,0,0,3.685-1.527l1.759,1.759,2.812-2.811-1.759-1.759a10.165,10.165,0,0,0,1.527-3.686ZM76,80.739A5.739,5.739,0,1,1,81.741,75,5.739,5.739,0,0,1,76,80.739Z" transform="translate(-63.502 -62.5)" fill="#ffb506"/>
  </g>
  <g id="Artwork_137" data-name="Artwork 137" transform="translate(6.002 5.975)">
    <g id="Group_599" data-name="Group 599">
      <g id="Group_598" data-name="Group 598" clip-path="url(#clip-path)">
        <g id="Group_597" data-name="Group 597">
          <g id="Group_596" data-name="Group 596" clip-path="url(#clip-path)">
            <path id="Path_184" data-name="Path 184" d="M75.956,68.475a6.417,6.417,0,1,0,6.381,6.471,6.4,6.4,0,0,0-6.381-6.471m-.077,12.038a5.621,5.621,0,1,1,5.661-5.561,5.642,5.642,0,0,1-5.661,5.561" transform="translate(-69.504 -68.475)" fill="#fdb415"/>
            <path id="Path_185" data-name="Path 185" d="M79.241,71.9a.909.909,0,0,0-.949-.891.892.892,0,1,0-.011,1.779.937.937,0,0,0,.96-.888" transform="translate(-69.504 -68.475)" fill="#fdb415"/>
            <path id="Path_186" data-name="Path 186" d="M76.709,74.186l.957.006v2.055s-4.044-4.639-4.074-4.672a.286.286,0,0,0-.4-.017l-.013.006-.013.008c-.127.081-.43.251-.542.341a.418.418,0,0,0-.184.333v.007l.022,6.4h1.708V74.694l3.521,4.018h1.554V72.871Z" transform="translate(-69.504 -68.475)" fill="#fdb415"/>
            <rect id="Rectangle_112" data-name="Rectangle 112" width="0.672" height="0.604" transform="translate(9.686 6.321)" fill="#fdb415"/>
            <rect id="Rectangle_113" data-name="Rectangle 113" width="0.672" height="0.604" transform="translate(9.686 7.5)" fill="#fdb415"/>
            <rect id="Rectangle_114" data-name="Rectangle 114" width="0.672" height="0.604" transform="translate(2.311 6.321)" fill="#fdb415"/>
            <rect id="Rectangle_115" data-name="Rectangle 115" width="0.672" height="0.604" transform="translate(2.311 7.5)" fill="#fdb415"/>
          </g>
        </g>
      </g>
    </g>
  </g>
</svg>
