<svg id="Group_2075" data-name="Group 2075" xmlns="http://www.w3.org/2000/svg" width="28" height="21.852" viewBox="0 0 28 21.852">
  <g id="Group_1149" data-name="Group 1149" transform="translate(0 0)">
    <path id="Path_897" data-name="Path 897" d="M1934.381,271.137h-22a1.093,1.093,0,0,1-.93-.519,14,14,0,1,1,23.861,0A1.093,1.093,0,0,1,1934.381,271.137Zm-21.371-2.185h20.741a11.819,11.819,0,1,0-20.741,0Z" transform="translate(-1909.376 -249.285)" fill="#ffb506"/>
  </g>
  <g id="Group_1150" data-name="Group 1150" transform="translate(12.75 10.317)">
    <rect id="Rectangle_217" data-name="Rectangle 217" width="2.5" height="8.438" transform="translate(0 0)" fill="#ffb506"/>
  </g>
  <g id="Group_1151" data-name="Group 1151" transform="translate(18.476 14.03)">
    <path id="Path_898" data-name="Path 898" d="M1935.025,268.94a1.255,1.255,0,0,1-.34-.047l-2.659-.75a1.25,1.25,0,1,1,.678-2.406l2.66.75a1.25,1.25,0,0,1-.339,2.453Z" transform="translate(-1931.115 -265.69)" fill="#ffb506"/>
  </g>
  <g id="Group_1152" data-name="Group 1152" transform="translate(17.322 7.316)">
    <path id="Path_899" data-name="Path 899" d="M1930.961,262.053a1.25,1.25,0,0,1-.73-2.266l2.3-1.65a1.25,1.25,0,1,1,1.458,2.031l-2.3,1.65A1.245,1.245,0,0,1,1930.961,262.053Z" transform="translate(-1929.71 -257.903)" fill="#ffb506"/>
  </g>
  <g id="Group_1153" data-name="Group 1153" transform="translate(12.679 4.07)">
    <path id="Path_900" data-name="Path 900" d="M1925.321,259.167h-.064a1.249,1.249,0,0,1-1.185-1.312l.128-2.55a1.25,1.25,0,0,1,2.5.126l-.129,2.551A1.25,1.25,0,0,1,1925.321,259.167Z" transform="translate(-1924.07 -254.117)" fill="#ffb506"/>
  </g>
  <g id="Group_1154" data-name="Group 1154" transform="translate(6 7.183)">
    <path id="Path_901" data-name="Path 901" d="M1919.517,261.9a1.242,1.242,0,0,1-.827-.314l-1.867-1.65a1.25,1.25,0,1,1,1.655-1.873l1.867,1.65a1.25,1.25,0,0,1-.828,2.187Z" transform="translate(-1916.4 -257.745)" fill="#ffb506"/>
  </g>
  <g id="Group_1155" data-name="Group 1155" transform="translate(4.186 14.023)">
    <path id="Path_902" data-name="Path 902" d="M1915.546,268.6a1.25,1.25,0,0,1-.214-2.482l2.561-.45a1.25,1.25,0,1,1,.432,2.462l-2.561.45A1.245,1.245,0,0,1,1915.546,268.6Z" transform="translate(-1914.298 -265.644)" fill="#ffb506"/>
  </g>
</svg>
