<svg xmlns="http://www.w3.org/2000/svg" width="21" height="18" viewBox="0 0 21 18">
  <g id="Group_4664" data-name="Group 4664" transform="translate(-2 -3)">
    <g id="Group_4663" data-name="Group 4663">
      <path id="Path_4068" data-name="Path 4068" d="M19,11c.17,0,.33.01.49.02L15,3H9l5.68,9.84A5.986,5.986,0,0,1,19,11Z" fill="#214497"/>
      <path id="Path_4069" data-name="Path 4069" d="M8.15,4.52,2,15.5,5,21l6.33-10.97Z" fill="#214497"/>
      <path id="Path_4070" data-name="Path 4070" d="M13.2,15.5H9.9L6.73,21h7.81A5.931,5.931,0,0,1,13,17,5.715,5.715,0,0,1,13.2,15.5Z" fill="#214497"/>
      <path id="Path_4071" data-name="Path 4071" d="M20,16V13H18v3H15v2h3v3h2V18h3V16Z" fill="#214497"/>
    </g>
  </g>
</svg>
