<svg xmlns="http://www.w3.org/2000/svg" width="28" height="21.852" viewBox="0 0 28 21.852"><defs><style>.a{fill:#ffb506;}</style></defs><g transform="translate(-1909.375 -249.285)"><g transform="translate(1909.376 249.285)"><path class="a" d="M1934.381,271.137h-22a1.093,1.093,0,0,1-.93-.519,14,14,0,1,1,23.861,0A1.093,1.093,0,0,1,1934.381,271.137Zm-21.371-2.185h20.741a11.819,11.819,0,1,0-20.741,0Z" transform="translate(-1909.376 -249.285)"/></g><g transform="translate(1922.126 259.602)"><rect class="a" width="2.5" height="8.438"/></g><g transform="translate(1927.852 263.315)"><path class="a" d="M1935.025,268.94a1.255,1.255,0,0,1-.34-.047l-2.659-.75a1.25,1.25,0,1,1,.678-2.406l2.66.75a1.25,1.25,0,0,1-.339,2.453Z" transform="translate(-1931.115 -265.69)"/></g><g transform="translate(1926.698 256.601)"><path class="a" d="M1930.961,262.053a1.25,1.25,0,0,1-.73-2.266l2.3-1.65a1.25,1.25,0,1,1,1.458,2.031l-2.3,1.65A1.245,1.245,0,0,1,1930.961,262.053Z" transform="translate(-1929.71 -257.903)"/></g><g transform="translate(1922.055 253.355)"><path class="a" d="M1925.321,259.167h-.064a1.249,1.249,0,0,1-1.185-1.312l.128-2.55a1.25,1.25,0,0,1,2.5.126l-.129,2.551A1.25,1.25,0,0,1,1925.321,259.167Z" transform="translate(-1924.07 -254.117)"/></g><g transform="translate(1915.376 256.468)"><path class="a" d="M1919.517,261.9a1.242,1.242,0,0,1-.827-.314l-1.867-1.65a1.25,1.25,0,1,1,1.655-1.873l1.867,1.65a1.25,1.25,0,0,1-.828,2.187Z" transform="translate(-1916.4 -257.745)"/></g><g transform="translate(1913.562 263.308)"><path class="a" d="M1915.546,268.6a1.25,1.25,0,0,1-.214-2.482l2.561-.45a1.25,1.25,0,1,1,.432,2.462l-2.561.45A1.245,1.245,0,0,1,1915.546,268.6Z" transform="translate(-1914.298 -265.644)"/></g></g></svg>