<svg id="more_vert_black_24dp_1_" data-name="more_vert_black_24dp (1)" xmlns="http://www.w3.org/2000/svg" width="28" height="39" viewBox="0 0 28 39">
  <path id="Path_4100" data-name="Path 4100" d="M0,0H28V39H0Z" fill="none"/>
  <path id="Path_4101" data-name="Path 4101" d="M12,11.75c1.1,0,2-1.744,2-3.875S13.1,4,12,4s-2,1.744-2,3.875S10.9,11.75,12,11.75Zm0,3.875c-1.1,0-2,1.744-2,3.875s.9,3.875,2,3.875,2-1.744,2-3.875S13.1,15.625,12,15.625ZM12,27.25c-1.1,0-2,1.744-2,3.875S10.9,35,12,35s2-1.744,2-3.875S13.1,27.25,12,27.25Z" transform="translate(2 0)" fill="#214497"/>
</svg>
