<svg id="add_a_photo_black_24dp" xmlns="http://www.w3.org/2000/svg" width="31.343" height="31.343" viewBox="0 0 31.343 31.343">
  <path id="Path_3896" data-name="Path 3896" d="M0,0H31.343V31.343H0Z" fill="none"/>
  <path id="Path_3897" data-name="Path 3897" d="M27.426,7.53h-4.14L20.9,4.918H13.06V7.53h6.687l2.39,2.612h5.289V25.814H6.53V14.06H3.918V25.814A2.62,2.62,0,0,0,6.53,28.426h20.9a2.62,2.62,0,0,0,2.612-2.612V10.142A2.62,2.62,0,0,0,27.426,7.53ZM10.448,17.978a6.53,6.53,0,1,0,6.53-6.53A6.532,6.532,0,0,0,10.448,17.978Zm6.53-3.918a3.918,3.918,0,1,1-3.918,3.918A3.929,3.929,0,0,1,16.978,14.06ZM6.53,7.53h3.918V4.918H6.53V1H3.918V4.918H0V7.53H3.918v3.918H6.53Z" transform="translate(0 0.306)" fill="#214497"/>
</svg>
