<svg xmlns="http://www.w3.org/2000/svg" width="24" height="24" viewBox="0 0 24 24">
  <g id="add_ic_call_black_24dp">
    <path id="Path_3809" data-name="Path 3809" d="M0,0H24V24H0Z" fill="rgba(0,0,0,0)"/>
    <path id="Path_3810" data-name="Path 3810" d="M20,15.45a11.36,11.36,0,0,1-3.57-.57,1.115,1.115,0,0,0-.31-.05,1.024,1.024,0,0,0-.71.29l-2.2,2.2a15.045,15.045,0,0,1-6.59-6.59l2.2-2.21a.96.96,0,0,0,.25-1A11.36,11.36,0,0,1,8.5,3.95a1,1,0,0,0-1-1H4a1,1,0,0,0-1,1,17,17,0,0,0,17,17,1,1,0,0,0,1-1v-3.5a1,1,0,0,0-1-1ZM5.03,4.95h1.5a13.786,13.786,0,0,0,.45,2.58L5.78,8.74a15.348,15.348,0,0,1-.75-3.79ZM19,18.92a14.9,14.9,0,0,1-3.8-.76l1.2-1.2a12.753,12.753,0,0,0,2.6.45ZM18,5.95v-3H16v3H13v2h3v3h2v-3h3v-2Z" fill="#bfbfbf"/>
  </g>
</svg>
