<svg xmlns="http://www.w3.org/2000/svg" width="20" height="16" viewBox="0 0 20 16">
  <g id="bx-id-card" transform="translate(-2 -4)">
    <path id="Path_25" data-name="Path 25" d="M9.715,12a1.943,1.943,0,0,0,2-2,1.943,1.943,0,0,0-2-2,1.943,1.943,0,0,0-2,2A1.943,1.943,0,0,0,9.715,12Z" fill="#fff"/>
    <path id="Path_26" data-name="Path 26" d="M20,4H4A2,2,0,0,0,2,6V18a2,2,0,0,0,2,2H20a2,2,0,0,0,2-2V6A2,2,0,0,0,20,4ZM4,18V6H20V18Z" fill="#fff"/>
    <path id="Path_27" data-name="Path 27" d="M14,9h4v2H14Zm1,4h3v2H15Zm-5.285-.25C7.676,12.75,6,14.162,6,15.536V16h7.43v-.464C13.43,14.162,11.754,12.75,9.715,12.75Z" fill="#fff"/>
  </g>
</svg>
