<svg id="Group_3597" data-name="Group 3597" xmlns="http://www.w3.org/2000/svg" width="14.073" height="14" viewBox="0 0 14.073 14">
  <path id="Path_2330" data-name="Path 2330" d="M20.955,11.671a7.049,7.049,0,0,0-12.967,0,6.992,6.992,0,0,0,0,5.449A7.053,7.053,0,0,0,18.406,20.2a7.041,7.041,0,0,0,1.9-1.89,6.979,6.979,0,0,0,.648-6.639ZM14.471,20.4a6.009,6.009,0,1,1,6.04-6.009A6.031,6.031,0,0,1,14.471,20.4Z" transform="translate(-7.435 -7.396)" fill="#ffb506"/>
  <path id="Path_2331" data-name="Path 2331" d="M14.971,19.179l-.684-.853H12.273l1.6,2.247h1.7v.5H16.5v-.5h.516v.5h.934v-.5h1.365L20.4,19.1l-1.754-2.488-.693-.042V14.5h.139l.532.722,2.093.025-1.528-2.14H17.953V12.63h-.934v.481H16.5V12.63h-.934v.481H14.029l-1.121,1.662,2.051,3.009.61.037v1.36Zm3.407-.133-.108.133h-.317v-.736ZM17.019,14.5V16.51l-.516-.031V14.5Zm-2.12.3.222-.3h.449v1.282Zm1.6,3.073.516.031v1.272H16.5Z" transform="translate(-9.459 -9.852)" fill="#ffb506"/>
</svg>
