<svg xmlns="http://www.w3.org/2000/svg" xmlns:xlink="http://www.w3.org/1999/xlink" width="137.484" height="191.069" viewBox="0 0 137.484 191.069">
  <defs>
    <clipPath id="clip-path">
      <rect id="Rectangle_1660" data-name="Rectangle 1660" width="137.484" height="191.069" fill="#003167"/>
    </clipPath>
  </defs>
  <g id="Group_4540" data-name="Group 4540" transform="translate(-234.943 -133.531)">
    <g id="Group_4539" data-name="Group 4539" transform="translate(234.943 133.531)" clip-path="url(#clip-path)">
      <path id="Path_4034" data-name="Path 4034" d="M226.464,315.659a358.434,358.434,0,0,0,1.906,45.253h-1.361a313.846,313.846,0,0,1-1.906-45.253.644.644,0,0,1,.681-.682A.73.73,0,0,1,226.464,315.659Z" transform="translate(-118.519 -142.961)" fill="#003167"/>
      <path id="Path_4035" data-name="Path 4035" d="M115.495,315.659a358.283,358.283,0,0,1-1.906,45.253h-1.361a313.84,313.84,0,0,0,1.906-45.253.68.68,0,1,1,1.361,0Z" transform="translate(-85.275 -142.961)" fill="#003167"/>
      <path id="Path_4036" data-name="Path 4036" d="M161.623,180.465v.268a4.879,4.879,0,0,0,.722,1.342,9.588,9.588,0,0,0,1.082.894l1.082.537a4.241,4.241,0,0,0,1.263.357,6.131,6.131,0,0,0,1.263.179h1.082a8.46,8.46,0,0,0,1.262-.179,6.675,6.675,0,0,0,1.263-.357,8.263,8.263,0,0,0,1.263-.626,4.063,4.063,0,0,0,.9-.8,4.9,4.9,0,0,0,.721-1.342.356.356,0,0,1,.181-.357,1.4,1.4,0,0,1,.721-.178,2.128,2.128,0,0,1,.721.178c.18.09.361.179.361.357a1.582,1.582,0,0,1-.361.895l-.541.8a3.9,3.9,0,0,1-1.443,1.163,14.2,14.2,0,0,1-2.344.984,9.824,9.824,0,0,1-2.886.357,12.166,12.166,0,0,1-1.8-.09,9.135,9.135,0,0,1-1.8-.357,7.846,7.846,0,0,1-3.427-1.967,2.646,2.646,0,0,1-.9-1.789v-.268c0-.268.541-.447.9-.447A.575.575,0,0,1,161.623,180.465Z" transform="translate(-99.366 -103.149)" fill="#003167"/>
      <path id="Path_4037" data-name="Path 4037" d="M170.782,157.518c.136.137.136.273.272.546-.272-2.522.272.954.408,1.5.545,1.227,1.225,2.454,1.906,3.68.273.545.681,1.227.953,1.772a9.484,9.484,0,0,1,.68,1.772,3.326,3.326,0,0,1,0,1.636,3.249,3.249,0,0,1-.816,1.5,2.829,2.829,0,0,1-.817.545,9.223,9.223,0,0,1-1.089.409,4.874,4.874,0,0,1-1.5.273h-.68a2.319,2.319,0,0,1-.953-.136c-.136,0-.272-.137-.408-.273a.82.82,0,0,1-.136-.545c0-.137.136-.273.272-.409a.815.815,0,0,1,.544-.137h1.225c.544-.136.953-.272,1.5-.409a2.949,2.949,0,0,0,.68-.409l.408-.409c0-.136.136-.136.136-.272s.136-.273.136-.409v-.682c-.136-.545-.272-.954-.408-1.5-.544-1.364-1.361-2.59-2.042-3.953a12.5,12.5,0,0,1-.953-1.908,1.976,1.976,0,0,1-.272-.955,2.657,2.657,0,0,1-.137-1.09,1.037,1.037,0,0,1,.273-.546.707.707,0,0,1,.544-.272C170.782,156.837,170.646,157.382,170.782,157.518Z" transform="translate(-101.904 -96.318)" fill="#003167"/>
      <path id="Path_4038" data-name="Path 4038" d="M139,158.583a4.688,4.688,0,0,0,4.935,4.583,4.775,4.775,0,0,0,4.935-4.583,4.949,4.949,0,0,0-9.871,0Z" transform="translate(-93.172 -95.481)" fill="#003167"/>
      <path id="Path_4039" data-name="Path 4039" d="M140.922,138.027a18.042,18.042,0,0,0-2.586.682,11.214,11.214,0,0,0-2.178,1.227c-.273.272-.681.545-.953.818a7.534,7.534,0,0,0-.816,1.09.416.416,0,0,0,0,.546c0,.136.136.409.272.409a.414.414,0,0,0,.544,0c.136,0,.272-.137.408-.273l.136-.136a6.47,6.47,0,0,1,1.361-1.364c.68-.409,1.225-.818,2.042-1.227a7.806,7.806,0,0,1,1.906-.545h1.361a1.029,1.029,0,0,1,.544.136.695.695,0,0,0,.272-1.363,5.583,5.583,0,0,0-1.5-.136A1.726,1.726,0,0,1,140.922,138.027Z" transform="translate(-91.782 -90.729)" fill="#003167"/>
      <path id="Path_4040" data-name="Path 4040" d="M190,158.583A4.688,4.688,0,0,1,194.935,154a4.775,4.775,0,0,1,4.935,4.583,4.949,4.949,0,0,1-9.871,0Z" transform="translate(-108.214 -95.481)" fill="#003167"/>
      <path id="Path_4041" data-name="Path 4041" d="M198,138.115a22.3,22.3,0,0,1,2.679.576,12.529,12.529,0,0,1,2.255,1.036c.282.231.705.46.987.691a6.657,6.657,0,0,1,.846.921.3.3,0,0,1,0,.46c0,.115-.141.346-.282.346a.5.5,0,0,1-.564,0,.781.781,0,0,1-.423-.231l-.141-.115a6.242,6.242,0,0,0-1.409-1.151c-.705-.345-1.269-.69-2.115-1.036a9.481,9.481,0,0,0-1.974-.46h-1.409a1.267,1.267,0,0,0-.564.115c-.423.115-.846-.115-.846-.46-.141-.346.141-.691.564-.691a7.055,7.055,0,0,1,1.551-.115A2.151,2.151,0,0,1,198,138.115Z" transform="translate(-109.689 -90.762)" fill="#003167"/>
      <path id="Path_4042" data-name="Path 4042" d="M145.328,71c-1.361,0-2.858,0-4.492.136A80.181,80.181,0,0,0,130.627,72.5c-3.4.818-7.019,1.368-9.742,2.731a34.585,34.585,0,0,0-8.813,3.878c-.953,1.09-1.058.705-2.115,1.763l-1.058.705a31.786,31.786,0,0,0-3.525,3.173,32.238,32.238,0,0,0-2.82,3.878c-1.058,1.763-3.508,3.91-5.277,6.227a30.557,30.557,0,0,0-4.22,7.224,44.3,44.3,0,0,0-2.723,8.179,69.026,69.026,0,0,0-1.633,8.86c-.408,2.726-.681,5.725-.953,9.133,0,2.726-.136,5.452-.272,8.042v1.363c-.136,2.863-.272,5.725-.545,8.588A120.717,120.717,0,0,1,85.3,159.462c-.953,4.634-1.906,9.269-3.131,14.039-.545,2.181-1.225,4.5-1.906,6.952-.408,1.5-.953,2.862-1.361,4.361l-.272.954-.136.546-.408,1.09a88.787,88.787,0,0,0-3.4,13.9A44.617,44.617,0,0,0,74,208.532a43.017,43.017,0,0,0,.681,7.088,57.436,57.436,0,0,0,1.634,6.542,52.45,52.45,0,0,0,2.586,6.407,24.53,24.53,0,0,0,8.712,10.086,146.453,146.453,0,0,0-3.539,24.262c-.272,4.361-.408,9-.272,13.631,0,2.044.136,4.225.272,6.542.136,1.091.136,2.181.272,3.271.136.818.136,1.772.272,2.59h1.5c-.136-1.636-.272-3.135-.408-4.634s-.136-3-.272-4.5c-.136-3-.272-6.133-.136-9.4a143.274,143.274,0,0,1,1.361-18.537,137.169,137.169,0,0,1,2.586-13.767,75.624,75.624,0,0,1,3.812-12.131,55.915,55.915,0,0,1,16.471-21.673,5.863,5.863,0,0,0,0,2.181,16.58,16.58,0,0,0,.68,1.909,11.6,11.6,0,0,0,1.361,1.908,15.468,15.468,0,0,0,3.4,3.135,21.147,21.147,0,0,0,3.812,2.181,22.87,22.87,0,0,0,5.445,1.5,9.594,9.594,0,0,0,1.906.137,24.476,24.476,0,0,0,4.22-.409,37.026,37.026,0,0,0,5.989-1.909c.816-.409,1.77-.681,2.586-1.09l.272-.137c.953-.409,1.906-.818,3-1.363.544-.273,1.089-.682,1.77-1.091v77.422h1.361V212.348a30.2,30.2,0,0,0,5.581,3.135,28.529,28.529,0,0,0,8.3,2.044c.681,0,1.361.137,2.042.137a17.512,17.512,0,0,0,6.126-.955c.68-.272,1.225-.409,1.769-.681a8.891,8.891,0,0,0,1.77-1.091,13.934,13.934,0,0,0,2.995-2.726,16.022,16.022,0,0,0,2.042-3.68,9.679,9.679,0,0,0,.544-2.318,1.733,1.733,0,0,1,.136-.818,58.574,58.574,0,0,1,8.031,8.451,56.551,56.551,0,0,1,7.079,12.131,77.684,77.684,0,0,1,3.812,12.267,137.237,137.237,0,0,1,2.586,13.767,167.23,167.23,0,0,1,1.361,18.537c0,3.271,0,6.407-.136,9.405-.136,1.5-.136,3-.272,4.5-.136,1.227-.272,2.863-.409,4.635h1.5a18.668,18.668,0,0,0,.272-2.59c.136-1.09.136-2.181.273-3.271.136-2.317.272-4.5.272-6.543.136-4.634,0-9.133-.272-13.631a149.861,149.861,0,0,0-3.131-22.9,23.291,23.291,0,0,0,5.445-4.5,29,29,0,0,0,3.4-4.634,34.681,34.681,0,0,0,3.948-10.768,63.373,63.373,0,0,0,.953-11.858,100.821,100.821,0,0,0-1.089-11.859c-.544-3.68-1.361-7.5-2.042-10.631-.544-2.181-.952-4.5-1.5-6.679l-.681-2.181c-.408-1.772-.816-3.544-1.225-5.18-1.225-5.316-2.042-9.678-2.587-13.767-.816-5.043-1.361-10.223-1.634-14.176v.137c-.136-1.636-.272-3.135-.408-4.771v-.272c-.272-3.544-.68-7.361-1.089-11.041-.272-2.863-.681-5.452-1.089-8.042-.408-2.863-.953-5.316-1.362-7.5a52.586,52.586,0,0,0-3.675-11.04,58.661,58.661,0,0,0-5.581-9.814,48.058,48.058,0,0,0-27.905-18.946,56.644,56.644,0,0,0-8.984-1.363A32.053,32.053,0,0,0,145.328,71Zm-3.4,103.046c-1.361,0-2.723-.136-4.084-.272a1.025,1.025,0,0,1-.545-.137,43.879,43.879,0,0,1-6.942-1.908h-.136a34.584,34.584,0,0,1-7.487-4.362,41.075,41.075,0,0,1-7.215-7.36l-.136-.136V159.6l-.136-.136-.136-.137-.136-.136-.136-.136a.134.134,0,0,0-.136-.137l-.136-.136-.136-.136-.136-.137.136-.272-.136-.137-.137-.136-.136-.136-.136-.137-.136-.272-.136-.137-.136-.272-.272-.409-.136-.273-.136-.136-.272-.409-.272-.409-.273-.409-.136-.273-.136-.136.272.136v-.136a.5.5,0,0,1-.136-.409l-.136-.136-.136-.137-.136-.136-.136-.273-.136-.136-.136-.136-.136-.273v-.136l-.136-.409a26.581,26.581,0,0,1-1.634-3.544v-.136c-.136-.273-.136-.409-.272-.682l-.136-.136-.136-.273a61.362,61.362,0,0,1-3.267-11.858v-.136a13.583,13.583,0,0,0,1.5-1.364,6.053,6.053,0,0,0,1.089-1.5,19.321,19.321,0,0,0,1.77-3,31.614,31.614,0,0,0,2.314-6.678c.681-2.726,1.089-5.589,1.5-7.77v-.273c.408-2.045.681-4.225,1.089-6.27a35.978,35.978,0,0,1,2.858-8.451c.408-.682.681-1.227,1.225-2.045a13.611,13.611,0,0,0,2.042,1.772,34.123,34.123,0,0,0,8.031,4.226,78.125,78.125,0,0,0,8.984,2.59c1.089.272,2.178.409,3.266.681l.544.137.681.136.68.136,4.084.818c2.178.546,4.084.955,5.717,1.5a31.426,31.426,0,0,1,3.811,1.363,45.659,45.659,0,0,1,4.492,2.181,29.087,29.087,0,0,1,3.539,2.59,26.272,26.272,0,0,1,2.859,2.726,70.828,70.828,0,0,1,5.036,6.134l.136.136.136.136c.953,1.227,1.77,2.317,2.723,3.408l.136.272c.408.545.816.954,1.225,1.5a3.631,3.631,0,0,0,.817.681,4.123,4.123,0,0,0,.953.682l.136.682-.136,1.227a58.033,58.033,0,0,1-3.675,13.9l-.136.272v.137l-.136.136a.133.133,0,0,1-.136.136l-.136.273c-.68,1.5-1.225,2.726-1.906,3.953l-.136.272-.272.409a34.768,34.768,0,0,1-4.22,6.407l-.544.681a51.509,51.509,0,0,1-6.67,6.679,16.485,16.485,0,0,1-1.906,1.363l-.136.137-.136.136L158.4,169v.137h-.136l-.136.136-.272.136-.136.137a.422.422,0,0,1-.273.136,24.919,24.919,0,0,1-3.811,1.909l-.273.136h-.136l-.272.136h-.136l-2.45.818c-.136,0-.136,0-.272.136h-.136a21.667,21.667,0,0,1-4.084.818,1.468,1.468,0,0,0-.817.137h-.408A9.265,9.265,0,0,1,141.926,174.046Zm37.706-36.393a29.844,29.844,0,0,0,.544-3.68c.544-.137,1.089-.273,1.5-.409h1.634a2.62,2.62,0,0,1,1.361.409c.409.136.681.409,1.089.545a3.184,3.184,0,0,1,.952.954,10.128,10.128,0,0,1,.953,1.636,16.507,16.507,0,0,1,.68,2.454,9.137,9.137,0,0,1,0,2.726,21.8,21.8,0,0,1-.68,2.863c-.408.818-.817,1.5-1.225,2.181a9.014,9.014,0,0,1-3.266,2.59,11.51,11.51,0,0,1-2.315.681l-.136.137H179.36A4.609,4.609,0,0,1,178,150.6l-1.634-.409h-.136l.272-.545v-.136a64.018,64.018,0,0,0,2.723-8.179c.136-.545.272-1.227.408-1.772.136,0,.136,0,.272-.136h.272c.544-.137.953-.273,1.361-.409H182.9a3.975,3.975,0,0,1,1.225.272,2.975,2.975,0,0,1,1.089.682l.136.136a.705.705,0,0,0,.544.273.964.964,0,0,0,.816-.818c0-.136-.136-.409-.272-.409a6.234,6.234,0,0,0-1.77-1.091,4.192,4.192,0,0,0-1.77-.409h-.408a4.173,4.173,0,0,0-1.361.137A1.5,1.5,0,0,0,179.632,137.653Zm-83.988,1.909a11.535,11.535,0,0,1,.68-2.317,10.223,10.223,0,0,1,.953-1.635,3.187,3.187,0,0,1,.953-.955,2.739,2.739,0,0,1,1.089-.545l1.225-.409h.408c.272,0,.544.136.816.136l.272.137a4.49,4.49,0,0,1,.817.409,5.911,5.911,0,0,0,.953.545l.136.136c.136.954.272,1.772.408,2.726a9.229,9.229,0,0,0-1.089-.409,4.612,4.612,0,0,0-1.361-.137H101.5a3.77,3.77,0,0,0-1.77.409,6.246,6.246,0,0,0-1.77,1.091c-.136.136-.136.273-.272.409a.773.773,0,0,0,1.361.545l.136-.136c.408-.273.68-.409,1.089-.682a3.981,3.981,0,0,1,1.225-.272h1.361c.544.136.953.272,1.361.409.136,0,.136.136.273.136s.272.136.408.136c.68,2.726,1.361,4.771,2.042,6.816.408,1.227.953,2.59,1.5,3.816H108.3a7.178,7.178,0,0,1-1.633.409c-.409,0-.953.136-1.361.136a5.587,5.587,0,0,1-1.5-.136,16.469,16.469,0,0,1-2.45-.682,6.229,6.229,0,0,1-1.77-1.091,7.812,7.812,0,0,1-1.5-1.5,16.229,16.229,0,0,1-1.225-2.045,11.3,11.3,0,0,1-.817-2.863A4.948,4.948,0,0,1,95.644,139.561Zm46.282,35.984a27.235,27.235,0,0,0,7.35-.954h.136c0,.136-.136.409-.136.545a31.585,31.585,0,0,0,.136,5.179,20.317,20.317,0,0,0,1.089,4.907,17.193,17.193,0,0,0,.953,2.181c.409.682.817,1.227,1.225,1.909a23.927,23.927,0,0,0,3.811,3.544,66.018,66.018,0,0,0,7.215,4.226c.68.408,1.361.681,2.042,1.09l.272.136.272.137-.408.409-.136.136v.136l-.136.137c-.272.409-.681.681-.953,1.09l-.272.273c-.68.682-1.361,1.227-2.178,1.909-.272.272-.544.409-.817.681a29.022,29.022,0,0,1-5.717,3.135,32.851,32.851,0,0,1-8.168,2.181c-1.5.136-2.994.273-4.492.273s-3.13-.137-4.628-.273a28.929,28.929,0,0,1-8.3-2.318,32.619,32.619,0,0,1-6.4-3.68,26.414,26.414,0,0,1-4.356-4.362l1.5-.818a47.644,47.644,0,0,0,7.215-4.225,23.953,23.953,0,0,0,3.811-3.544,5.713,5.713,0,0,0,1.225-1.909,10.6,10.6,0,0,0,.953-2.181,20.289,20.289,0,0,0,1.089-4.907,32.056,32.056,0,0,0,.136-5.179V175a4.9,4.9,0,0,0,1.5.272l.816.137C139.067,175.41,140.564,175.546,141.926,175.546Z" transform="translate(-74 -71)" fill="#214497"/>
      <path id="Path_4043" data-name="Path 4043" d="M161.99,285.864h-.68a1.812,1.812,0,0,0-1.089.409,1.891,1.891,0,0,0-.544.409c-.136,0-.136.137-.272.137l-.136.136-.272.273-.136.136a3.413,3.413,0,0,0-.545.954,2.666,2.666,0,0,0-.136.955v.545a4.436,4.436,0,0,0,.545,1.772,4.082,4.082,0,0,0,1.361,1.227l.817.409a2.017,2.017,0,0,0,.953.136,4.184,4.184,0,0,0,1.77-.409,1.866,1.866,0,0,0,.544-.409l.136-.136a3.617,3.617,0,0,0,.681-.818c.272-.273.272-.545.408-.818a3.78,3.78,0,0,0,.136-1.227v-.681a5.617,5.617,0,0,0-.408-1.091,2.988,2.988,0,0,0-.408-.682,4.647,4.647,0,0,0-.817-.818l-.816-.409a.475.475,0,0,1-.272-.136c-.273,0-.409-.136-.545-.136C162.262,285.864,162.126,285.864,161.99,285.864Z" transform="translate(-98.828 -134.294)" fill="#003167"/>
      <path id="Path_4044" data-name="Path 4044" d="M161.947,308.791h-.408a1.964,1.964,0,0,0-.953.273,1.032,1.032,0,0,0-.544.272c-.136,0-.136.137-.272.137a3.594,3.594,0,0,0-.816.681,2.193,2.193,0,0,0-.545.954c-.136.273-.136.546-.272.682a1.166,1.166,0,0,0,0,.954v.137a5.912,5.912,0,0,0,.136.681,1.943,1.943,0,0,1,.272.818c.137.273.409.546.545.818.272.273.544.409.816.682.272.136.68.272.953.409.272,0,.544.136.953.136a2.661,2.661,0,0,0,.953-.136c.272,0,.408-.137.68-.273a2.443,2.443,0,0,0,.953-.681l.545-.546a1.5,1.5,0,0,0,.408-.818,2.664,2.664,0,0,0,.136-.954V312.2a3.57,3.57,0,0,0-.816-1.772,3.866,3.866,0,0,0-1.5-1.091A2.444,2.444,0,0,0,161.947,308.791Z" transform="translate(-98.786 -141.136)" fill="#003167"/>
    </g>
    <path id="Path_4045" data-name="Path 4045" d="M177.35,144.484a32.485,32.485,0,0,1-29.2,22.174,32.485,32.485,0,0,1-29.2-22.174l-3.606-10.822a38.869,38.869,0,0,1-1.872-15.372l.323-4.062a34.462,34.462,0,0,1,68.706,0l.323,4.062a38.868,38.868,0,0,1-1.872,15.372Z" transform="translate(155.534 75.342)" fill="none" stroke="#ffb506" stroke-width="4" stroke-dasharray="1"/>
  </g>
</svg>
