<svg xmlns="http://www.w3.org/2000/svg" width="27" height="27" viewBox="0 0 27 27">
  <g id="Group_2074" data-name="Group 2074" transform="translate(1 1)">
    <circle id="Ellipse_49" data-name="Ellipse 49" cx="12.5" cy="12.5" r="12.5" transform="translate(0)" fill="none" stroke="#fdb415" stroke-width="2"/>
    <g id="Group_1967" data-name="Group 1967" transform="translate(3.786 3.97)">
      <g id="Group_1966" data-name="Group 1966">
        <path id="Path_1150" data-name="Path 1150" d="M-678.551,564.253a1.9,1.9,0,0,0-1.98-1.86,1.933,1.933,0,0,0-2.006,1.837,1.936,1.936,0,0,0,1.982,1.876A1.954,1.954,0,0,0-678.551,564.253Z" transform="translate(694.051 -562.393)" fill="#fdb415"/>
        <path id="Path_1151" data-name="Path 1151" d="M-683.835,569.018l2,.014v4.288s-8.44-9.682-8.5-9.751a.6.6,0,0,0-.844-.035l-.027.012-.026.017c-.266.169-.9.524-1.132.711a.878.878,0,0,0-.384.7v.014l.079,13.475h3.5l.034-8.38,7.349,8.386h3.242v-12.19Z" transform="translate(694.051 -562.393)" fill="#fdb415"/>
        <rect id="Rectangle_1256" data-name="Rectangle 1256" width="1.403" height="1.261" transform="translate(15.465 7.9)" fill="#fdb415"/>
        <rect id="Rectangle_1257" data-name="Rectangle 1257" width="1.403" height="1.261" transform="translate(15.465 10.359)" fill="#fdb415"/>
        <rect id="Rectangle_1258" data-name="Rectangle 1258" width="1.403" height="1.261" transform="translate(0 7.9)" fill="#fdb415"/>
        <rect id="Rectangle_1259" data-name="Rectangle 1259" width="1.403" height="1.261" transform="translate(0 10.359)" fill="#fdb415"/>
      </g>
    </g>
  </g>
</svg>
