<svg id="Group_3601" data-name="Group 3601" xmlns="http://www.w3.org/2000/svg" width="25.053" height="25" viewBox="0 0 25.053 25">
  <path id="Path_2332" data-name="Path 2332" d="M31.584,15.134a12.539,12.539,0,0,0-23.083,0A12.467,12.467,0,0,0,9.656,26.989a12.54,12.54,0,0,0,21.928-2.123,12.512,12.512,0,0,0,0-9.732ZM20.043,30.73A10.73,10.73,0,1,1,30.8,20,10.754,10.754,0,0,1,20.043,30.73Z" transform="translate(-7.516 -7.5)" fill="#fbb315"/>
  <g id="Group_3600" data-name="Group 3600" transform="translate(4.262 5.313)">
    <g id="Group_3598" data-name="Group 3598" transform="translate(0 5.413)">
      <path id="Path_2333" data-name="Path 2333" d="M23.048,18.226H12.658l-.88,1.781H24.161Z" transform="translate(-11.778 -18.226)" fill="#fbb315"/>
      <path id="Path_2334" data-name="Path 2334" d="M24.688,21.123H11.9l.88,1.781H25.8Z" transform="translate(-11.778 -18.226)" fill="#fbb315"/>
    </g>
    <g id="Group_3599" data-name="Group 3599" transform="translate(1.243)">
      <path id="Path_2335" data-name="Path 2335" d="M17.823,24.936s-1.179-2.707-1.569-3.424a2.156,2.156,0,0,1-.052-2.173c.257-.505,1.734-3.65,1.734-3.65h5.128l.514.977,2.965-.017-1.978-3.836H16.286s-2.518,5.437-2.931,6.245a2.806,2.806,0,0,0,.1,2.805c.3.662,2.941,5.95,2.941,5.95h8.638l1.741-2.877Z" transform="translate(-13.021 -12.813)" fill="#fbb315"/>
    </g>
  </g>
</svg>
