<svg xmlns="http://www.w3.org/2000/svg" width="46" height="56" viewBox="0 0 46 56"><defs><style>.a,.b,.d{fill:none;}.a{stroke:#bfbfbf;}.c,.e{stroke:none;}.e{fill:#214497;}</style></defs><g transform="translate(0)"><g class="a"><rect class="c" width="46" height="56" rx="4"/><rect class="d" x="0.5" y="0.5" width="45" height="55" rx="3.5"/></g><g class="b" transform="translate(9.267 8.228)"><path class="c" d="M0,.952A.952.952,0,0,1,.952,0H26.962a.952.952,0,0,1,0,1.9H.952A.952.952,0,0,1,0,.952Z"/><path class="e" d="M 0.9516162872314453 3.576278686523438e-07 L 26.96245574951172 3.576278686523438e-07 C 27.48801612854004 3.576278686523438e-07 27.91407585144043 0.4260504245758057 27.91407585144043 0.9516203999519348 C 27.91407585144043 1.477190375328064 27.48801612854004 1.903240442276001 26.96245574951172 1.903240442276001 L 0.9516162872314453 1.903240442276001 C 0.426055908203125 1.903240442276001 -3.814697265625e-06 1.477190375328064 -3.814697265625e-06 0.9516203999519348 C -3.814697265625e-06 0.4260504245758057 0.426055908203125 3.576278686523438e-07 0.9516162872314453 3.576278686523438e-07 Z"/></g><g class="b" transform="translate(14.533 47.964)"><path class="c" d="M0,.872A.872.872,0,0,1,.872,0h15.86a.872.872,0,0,1,0,1.745H.872A.872.872,0,0,1,0,.872Z"/><path class="e" d="M 0.8723182678222656 -8.344650268554688e-07 L 16.73257827758789 -8.344650268554688e-07 C 17.21434783935547 -8.344650268554688e-07 17.60489845275879 0.3905491828918457 17.60489845275879 0.8723191618919373 C 17.60489845275879 1.354089140892029 17.21434783935547 1.744639158248901 16.73257827758789 1.744639158248901 L 0.8723182678222656 1.744639158248901 C 0.3905487060546875 1.744639158248901 -1.9073486328125e-06 1.354089140892029 -1.9073486328125e-06 0.8723191618919373 C -1.9073486328125e-06 0.3905491828918457 0.3905487060546875 -8.344650268554688e-07 0.8723182678222656 -8.344650268554688e-07 Z"/></g><g transform="translate(11.525 16.025)"><g class="b" transform="translate(0 0)"><path class="c" d="M11.644,0a11.675,11.675,0,0,0-1.251.067,11,11,0,0,0-1.128.18L9.05.295A11.658,11.658,0,0,0,3.3,3.515q-.219.224-.428.461A11.671,11.671,0,0,0,19.991,19.828q.219-.224.428-.461A11.671,11.671,0,0,0,11.644,0ZM3.817,4.1c.061-.064.125-.125.188-.187s.144-.143.218-.212.132-.119.2-.178.15-.133.227-.2.137-.112.207-.167.156-.124.236-.184.143-.105.215-.156.161-.117.244-.17.148-.1.223-.146.167-.106.251-.156.153-.09.23-.134.173-.1.259-.144l.233-.122c.089-.045.178-.088.268-.13s.159-.074.239-.109L7.53,1.59c.081-.033.161-.065.242-.1s.189-.069.285-.1.163-.057.245-.084.195-.06.293-.088c.082-.024.163-.048.246-.07l.095-.023A9.653,9.653,0,0,0,6.448,5.163,13.067,13.067,0,0,1,3.782,4.137Zm-.559.626A13.517,13.517,0,0,0,6.21,5.9a20.188,20.188,0,0,0-.785,5.382H.76A10.87,10.87,0,0,1,3.258,4.725Zm0,13.893A10.871,10.871,0,0,1,.76,12.06H5.425a20.186,20.186,0,0,0,.785,5.382A13.526,13.526,0,0,0,3.258,18.618ZM8.837,22.2c-.079-.02-.16-.046-.241-.069-.1-.029-.2-.058-.295-.089-.082-.026-.163-.055-.244-.083s-.191-.067-.286-.1-.161-.063-.241-.1l-.278-.117q-.119-.053-.237-.108L6.744,21.4c-.078-.039-.156-.078-.233-.12s-.175-.1-.262-.145S6.1,21.046,6.022,21s-.17-.1-.254-.158-.148-.095-.221-.144-.165-.114-.246-.173-.142-.1-.212-.156-.16-.123-.238-.186-.137-.109-.2-.166-.153-.132-.228-.2-.133-.117-.2-.177S4.074,19.5,4,19.43s-.126-.123-.188-.186l-.033-.036a13.057,13.057,0,0,1,2.666-1.026,9.656,9.656,0,0,0,2.486,4.038Zm2.418.338c-1.665-.237-3.124-1.974-4.042-4.54a19.771,19.771,0,0,1,4.042-.476Zm0-5.794a20.487,20.487,0,0,0-4.286.511A19.463,19.463,0,0,1,6.2,12.06h5.053Zm0-5.458H6.2a19.459,19.459,0,0,1,.766-5.191,20.494,20.494,0,0,0,4.286.511Zm0-5.458a19.75,19.75,0,0,1-4.042-.476c.918-2.566,2.377-4.3,4.042-4.54Zm8.776-1.1a10.871,10.871,0,0,1,2.5,6.557H17.864A20.186,20.186,0,0,0,17.079,5.9,13.531,13.531,0,0,0,20.031,4.725ZM14.448,1.147c.082.02.163.046.244.07.1.029.2.058.295.089.082.026.163.055.244.083s.191.067.286.1.161.063.241.1l.278.117q.119.053.237.108l.272.131c.078.039.156.078.233.12s.175.1.262.145.152.088.227.133.17.1.254.158.148.095.221.144.165.114.246.172.143.1.213.156.159.123.238.186.137.109.2.166.153.132.228.2.133.117.2.177.146.141.219.212.126.123.188.186l.033.036a13.057,13.057,0,0,1-2.666,1.026,9.655,9.655,0,0,0-2.489-4.037ZM12.033.809c1.665.237,3.124,1.974,4.042,4.54a19.771,19.771,0,0,1-4.042.476Zm0,5.794a20.488,20.488,0,0,0,4.286-.511,19.463,19.463,0,0,1,.766,5.191H12.033Zm0,5.458h5.053a19.459,19.459,0,0,1-.766,5.191,20.494,20.494,0,0,0-4.286-.511Zm0,10.473V17.518a19.75,19.75,0,0,1,4.042.476C15.157,20.56,13.7,22.3,12.033,22.534Zm7.438-3.29c-.061.063-.125.124-.188.186s-.145.143-.219.212-.131.117-.2.177-.151.134-.228.2-.137.112-.207.167-.156.124-.236.184-.143.105-.215.156-.161.117-.244.17-.148.1-.223.146-.167.106-.252.156l-.229.134q-.129.074-.26.144l-.233.122c-.089.045-.178.088-.268.13s-.159.074-.239.109l-.277.117c-.081.033-.161.065-.242.1s-.19.07-.286.1-.162.057-.244.083c-.1.032-.195.06-.294.089-.081.024-.163.048-.245.07l-.095.023a9.653,9.653,0,0,0,2.486-4.038A13.067,13.067,0,0,1,19.507,19.2Zm.559-.626a13.517,13.517,0,0,0-2.952-1.175,20.188,20.188,0,0,0,.785-5.382h4.665A10.87,10.87,0,0,1,20.031,18.618Z"/><path class="e" d="M 11.64437580108643 -1.9073486328125e-06 C 18.09028625488281 -5.340576171875e-05 23.31571578979492 5.225357055664062 23.31571578979492 11.67129707336426 C 23.31737518310547 14.50300788879395 22.2877254486084 17.23843765258789 20.41929626464844 19.36621856689453 C 20.28001594543457 19.52440643310547 20.13738632202148 19.67822647094727 19.99134635925293 19.82762718200684 C 15.66343593597412 24.22669792175293 8.658957481384277 24.49639701843262 4.005605697631836 20.44308853149414 C -0.8549537658691406 16.20930862426758 -1.363044738769531 8.836907386779785 2.870716094970703 3.976377487182617 C 3.010236740112305 3.818187713623047 3.152925491333008 3.66436767578125 3.298666000366211 3.51496696472168 C 4.865976333618164 1.910797119140625 6.862735748291016 0.7927284240722656 9.049506187438965 0.2948474884033203 C 9.121326446533203 0.2782669067382812 9.193205833435059 0.2624073028564453 9.265036582946777 0.2473773956298828 C 9.636186599731445 0.1699676513671875 10.01238632202148 0.1061573028564453 10.39325618743896 0.06725692749023438 C 10.80880641937256 0.02246665954589844 11.2264461517334 -1.9073486328125e-06 11.64437580108643 -1.9073486328125e-06 Z M 11.25537586212158 5.824337005615234 L 11.25537586212158 0.80877685546875 C 9.590665817260742 1.045316696166992 8.131356239318848 2.782787322998047 7.213215827941895 5.348537445068359 C 8.54063606262207 5.645917892456055 9.895186424255371 5.805377960205078 11.25537586212158 5.824337005615234 Z M 12.03346633911133 5.824337005615234 C 13.39360618591309 5.805227279663086 14.74820613861084 5.645767211914062 16.07562637329102 5.348537445068359 C 15.15748596191406 2.782787322998047 13.69818592071533 1.045316696166992 12.03346633911133 0.80877685546875 L 12.03346633911133 5.824337005615234 Z M 14.35333633422852 1.123508453369141 C 15.50592613220215 2.241287231445312 16.36157608032227 3.628868103027344 16.84281539916992 5.160627365112305 C 17.76626586914062 4.917037963867188 18.66018676757812 4.572877883911133 19.50854682922363 4.134326934814453 C 19.49726676940918 4.122657775878906 19.48636627197266 4.110206604003906 19.4750862121582 4.098148345947266 C 19.41361618041992 4.034736633300781 19.34981536865234 3.973657608032227 19.28717613220215 3.911798477172852 C 19.21481704711914 3.840606689453125 19.14283561706543 3.768627166748047 19.06853675842285 3.699377059936523 C 19.00395584106445 3.639467239379883 18.93742561340332 3.581497192382812 18.87128639221191 3.522747039794922 C 18.79581642150879 3.455837249755859 18.72073554992676 3.388526916503906 18.64292526245117 3.323947906494141 C 18.57561683654785 3.267147064208984 18.50675582885742 3.212677001953125 18.43828582763672 3.158218383789062 C 18.35930633544922 3.095188140869141 18.28072547912598 3.032558441162109 18.20057678222656 2.972257614135742 C 18.13016700744629 2.918956756591797 18.0589656829834 2.867597579956055 17.98738670349121 2.81663703918457 C 17.90607643127441 2.758277893066406 17.82437515258789 2.700307846069336 17.74150657653809 2.644287109375 C 17.66875648498535 2.595268249511719 17.5948371887207 2.547416687011719 17.52092552185059 2.500347137451172 C 17.43688583374023 2.446268081665039 17.35285568237305 2.39335823059082 17.26726531982422 2.341997146606445 C 17.19218635559082 2.296876907348633 17.11825561523438 2.252517700195312 17.04045677185059 2.20933723449707 C 16.95330619812012 2.159538269042969 16.86615562438965 2.111297607421875 16.77823638916016 2.064228057861328 C 16.70042610168457 2.021818161010742 16.62261581420898 1.982917785644531 16.5448055267334 1.944007873535156 C 16.4533863067627 1.89887809753418 16.36312675476074 1.855306625366211 16.27248573303223 1.812507629394531 C 16.19389724731445 1.775407791137695 16.11492538452148 1.739368438720703 16.03555679321289 1.704357147216797 C 15.94335556030273 1.665447235107422 15.85036659240723 1.626546859741211 15.75738620758057 1.587636947631836 C 15.67724609375 1.554967880249023 15.59749603271484 1.522666931152344 15.51656627655029 1.491937637329102 C 15.42203617095947 1.455757141113281 15.32632637023926 1.421907424926758 15.23062610626221 1.388837814331055 C 15.14970588684082 1.360437393188477 15.06877613067627 1.332036972045898 14.98669624328613 1.305587768554688 C 14.88943672180176 1.274066925048828 14.79061603546143 1.245277404785156 14.69218635559082 1.216497421264648 C 14.61126613616943 1.192756652832031 14.52995681762695 1.167087554931641 14.44825553894043 1.146858215332031 C 14.41674613952637 1.138298034667969 14.38484573364258 1.131687164306641 14.35333633422852 1.123508453369141 Z M 6.447976112365723 5.163356781005859 C 6.928195953369141 3.631736755371094 7.78277587890625 2.244007110595703 8.934346199035645 1.125846862792969 C 8.902835845947266 1.134017944335938 8.871326446533203 1.140626907348633 8.83980655670166 1.148797988891602 C 8.757326126098633 1.170976638793945 8.676026344299316 1.195487976074219 8.593935966491699 1.219217300415039 C 8.495896339416504 1.247617721557617 8.398245811462402 1.276407241821289 8.301376342773438 1.307527542114258 C 8.21889591217041 1.334377288818359 8.13758659362793 1.362777709960938 8.056276321411133 1.391178131103516 C 7.960956573486328 1.424636840820312 7.865646362304688 1.458087921142578 7.771495819091797 1.493877410888672 C 7.690186500549316 1.525007247924805 7.61004638671875 1.557296752929688 7.529516220092773 1.590368270874023 C 7.436916351318359 1.629266738891602 7.344326019287109 1.668176651000977 7.25290584564209 1.707077026367188 C 7.172756195068359 1.742097854614258 7.091835975646973 1.779047012329102 7.014026641845703 1.816017150878906 C 6.924156188964844 1.858417510986328 6.834675788879395 1.90159797668457 6.745976448059082 1.94633674621582 C 6.668166160583496 1.986026763916016 6.590366363525391 2.026626586914062 6.512556076049805 2.068117141723633 C 6.42564582824707 2.114797592163086 6.33918571472168 2.162656784057617 6.253056526184082 2.211668014526367 C 6.176026344299316 2.255487442016602 6.099535942077637 2.300127029418945 6.023526191711426 2.34550666809082 C 5.939105987548828 2.395298004150391 5.85545539855957 2.447816848754883 5.772205352783203 2.501117706298828 C 5.697505950927734 2.548976898193359 5.623195648193359 2.597217559814453 5.549665451049805 2.647006988525391 C 5.467586517333984 2.70069694519043 5.386665344238281 2.759838104248047 5.306125640869141 2.817417144775391 C 5.233766555786133 2.867986679077148 5.161796569824219 2.919736862182617 5.090986251831055 2.973028182983398 C 5.010847091674805 3.032947540283203 4.933036804199219 3.095188140869141 4.855226516723633 3.157438278198242 C 4.785976409912109 3.212677001953125 4.716335296630859 3.267538070678711 4.648645401000977 3.324728012084961 C 4.571617126464844 3.388917922973633 4.496915817260742 3.455448150634766 4.421836853027344 3.521978378295898 C 4.355306625366211 3.581108093261719 4.288396835327148 3.639467239379883 4.223426818847656 3.700157165527344 C 4.149505615234375 3.769018173217773 4.077535629272461 3.840606689453125 4.005167007446289 3.911798477172852 C 3.942535400390625 3.973657608032227 3.878726959228516 4.034736633300781 3.817256927490234 4.098537445068359 C 3.805976867675781 4.110206604003906 3.795085906982422 4.12382698059082 3.782245635986328 4.137447357177734 C 4.630655288696289 4.575798034667969 5.524576187133789 4.919816970825195 6.447976112365723 5.163356781005859 Z M 5.424785614013672 11.28224754333496 C 5.442586898803711 9.460887908935547 5.706846237182617 7.650327682495117 6.21026611328125 5.899818420410156 C 5.18333625793457 5.625637054443359 4.192346572875977 5.231246948242188 3.257816314697266 4.724897384643555 C 1.723236083984375 6.574466705322266 0.8449153900146484 8.880437850952148 0.7601566314697266 11.28224754333496 L 5.424785614013672 11.28224754333496 Z M 22.5286865234375 11.28224754333496 C 22.44382667541504 8.880487442016602 21.56551551818848 6.574518203735352 20.03102684020996 4.724897384643555 C 19.0964469909668 5.231147766113281 18.10545539855957 5.62548828125 17.07857513427734 5.899818420410156 C 17.58204650878906 7.650327682495117 17.84625625610352 9.460887908935547 17.86405563354492 11.28224754333496 L 22.5286865234375 11.28224754333496 Z M 11.25537586212158 11.28224754333496 L 11.25537586212158 6.602428436279297 C 9.812565803527832 6.583417892456055 8.375725746154785 6.412036895751953 6.96889591217041 6.091226577758789 C 6.480356216430664 7.779047012329102 6.222665786743164 9.525277137756348 6.202876091003418 11.28224754333496 L 11.25537586212158 11.28224754333496 Z M 17.08596611022949 11.28224754333496 C 17.06612586975098 9.525277137756348 16.80843734741211 7.779047012329102 16.3199462890625 6.091226577758789 C 14.91311645507812 6.412088394165039 13.47632598876953 6.583467483520508 12.03346633911133 6.602428436279297 L 12.03346633911133 11.28224754333496 L 17.08596611022949 11.28224754333496 Z M 0.7601566314697266 12.06033706665039 C 0.8450164794921875 14.46210765838623 1.723335266113281 16.7680778503418 3.257816314697266 18.61769866943359 C 4.19239616394043 18.11139678955078 5.183385848999023 17.71704864501953 6.21026611328125 17.44277763366699 C 5.706796646118164 15.69226741790771 5.442586898803711 13.88169765472412 5.424785614013672 12.06033706665039 L 0.7601566314697266 12.06033706665039 Z M 6.202876091003418 12.06033706665039 C 6.222716331481934 13.81731796264648 6.480405807495117 15.56354713439941 6.96889591217041 17.25136756896973 C 8.375725746154785 16.93049812316895 9.812516212463379 16.75912857055664 11.25537586212158 16.74016761779785 L 11.25537586212158 12.06033706665039 L 6.202876091003418 12.06033706665039 Z M 16.3199462890625 17.25136756896973 C 16.80848693847656 15.56354713439941 17.06617546081543 13.81731796264648 17.08596611022949 12.06033706665039 L 12.03346633911133 12.06033706665039 L 12.03346633911133 16.74016761779785 C 13.47632598876953 16.75917816162109 14.91311645507812 16.93055725097656 16.3199462890625 17.25136756896973 Z M 20.03102684020996 18.61769866943359 C 21.56561660766602 16.76812744140625 22.4439754486084 14.46210765838623 22.5286865234375 12.06033706665039 L 17.86405563354492 12.06033706665039 C 17.84625625610352 13.88169765472412 17.58200645446777 15.69226741790771 17.07857513427734 17.44277763366699 C 18.10550689697266 17.71695709228516 19.09649658203125 18.11134719848633 20.03102684020996 18.61769866943359 Z M 11.25537586212158 22.53381729125977 L 11.25537586212158 17.51825714111328 C 9.895236015319824 17.53736686706543 8.54063606262207 17.69682693481445 7.213215827941895 17.99405670166016 C 8.131356239318848 20.55980682373047 9.590665817260742 22.29727745056152 11.25537586212158 22.53381729125977 Z M 12.03346633911133 22.53381729125977 C 13.69818592071533 22.29727745056152 15.15748596191406 20.55980682373047 16.07562637329102 17.99405670166016 C 14.74820613861084 17.69667816162109 13.39365577697754 17.53721809387207 12.03346633911133 17.51825714111328 L 12.03346633911133 22.53381729125977 Z M 14.35449600219727 22.21635818481445 C 14.38600635528564 22.20818710327148 14.41752624511719 22.20157814025879 14.44903564453125 22.19340705871582 C 14.53112602233887 22.17122650146484 14.61282634735107 22.14710807800293 14.69413566589355 22.12298774719238 C 14.79333686828613 22.0945873260498 14.89059638977051 22.06579780578613 14.98786640167236 22.03428649902344 C 15.0699462890625 22.00782775878906 15.15086555480957 21.97942733764648 15.23178672790527 21.95102691650391 C 15.32749557495117 21.91796684265137 15.42280578613281 21.88411712646484 15.51773643493652 21.84792709350586 C 15.59865570068359 21.81719779968262 15.67880630493164 21.78451728820801 15.75933647155762 21.7518367767334 C 15.85192680358887 21.71293830871582 15.9445161819458 21.67402648925781 16.03594589233398 21.63512802124023 C 16.11608505249023 21.60010719299316 16.19700622558594 21.56314849853516 16.27481651306152 21.52619743347168 C 16.36468505859375 21.48378753662109 16.45416641235352 21.44060707092285 16.54286575317383 21.3958568572998 C 16.62067604064941 21.35617828369141 16.698486328125 21.31557846069336 16.77629661560059 21.27409744262695 C 16.86343574523926 21.22740745544434 16.95004653930664 21.17955780029297 17.03617668151855 21.13053703308105 C 17.11281585693359 21.08656692504883 17.18712615966797 21.04221725463867 17.26493644714355 20.99669647216797 C 17.34950637817383 20.9466667175293 17.43338584899902 20.89477729797363 17.51664733886719 20.84108734130859 C 17.59133529663086 20.79362678527832 17.66564559936523 20.74537658691406 17.73917579650879 20.69557762145996 C 17.82125663757324 20.64189720153809 17.90218734741211 20.5827579498291 17.98271560668945 20.52517700195312 C 18.05507659912109 20.47460746765137 18.12704658508301 20.4228572845459 18.19785690307617 20.36956787109375 C 18.27799606323242 20.30964660644531 18.35580635070801 20.24739837646484 18.43361663818359 20.18515777587891 C 18.50286674499512 20.12990760803223 18.57211685180664 20.07505798339844 18.64019584655762 20.01825714111328 C 18.71722602844238 19.95367813110352 18.79231643676758 19.88675689697266 18.86779594421387 19.81983757019043 C 18.93392562866211 19.75953674316406 19.00045585632324 19.70312690734863 19.06503677368164 19.6428279876709 C 19.13934707641602 19.57357788085938 19.21170616149902 19.5015983581543 19.28406524658203 19.4304084777832 C 19.34670639038086 19.3685474395752 19.41011619567871 19.30746841430664 19.47158622741699 19.24405670166016 C 19.48286628723145 19.23237800598145 19.49375534057617 19.2187671661377 19.50659561157227 19.20475769042969 C 18.65819549560547 18.76640701293945 17.76426696777344 18.42238807678223 16.84087562561035 18.17884826660156 C 16.36064529418945 19.71046829223633 15.50606632232666 21.09819793701172 14.35449600219727 22.21635818481445 Z M 8.932406425476074 22.21869659423828 C 7.780886650085449 21.10042762756348 6.926345825195312 19.7127571105957 6.446025848388672 18.18118667602539 C 5.522586822509766 18.42477798461914 4.628656387329102 18.7689380645752 3.780305862426758 19.20748710632324 C 3.791585922241211 19.21915817260742 3.80247688293457 19.23160743713379 3.813756942749023 19.24366760253906 C 3.875226974487305 19.30707740783691 3.939035415649414 19.36815643310547 4.001667022705078 19.43001747131348 C 4.074026107788086 19.50121688842773 4.146005630493164 19.57318687438965 4.220306396484375 19.64243698120117 C 4.284885406494141 19.70234680175781 4.351415634155273 19.76031684875488 4.417556762695312 19.81906700134277 C 4.493026733398438 19.88597869873047 4.568115234375 19.95328712463379 4.645925521850586 20.01786804199219 C 4.713226318359375 20.07427787780762 4.781696319580078 20.12874794006348 4.850555419921875 20.18359756469727 C 4.929145812988281 20.24662780761719 5.008125305175781 20.30925750732422 5.088655471801758 20.36995697021484 C 5.158685684204102 20.42363739013672 5.229875564575195 20.47460746765137 5.301065444946289 20.52556800842285 C 5.382375717163086 20.58392715454102 5.464466094970703 20.64228820800781 5.547336578369141 20.69830703735352 C 5.620086669921875 20.74732780456543 5.694005966186523 20.7951774597168 5.767925262451172 20.84224700927734 C 5.851955413818359 20.89632797241211 5.935985565185547 20.94923782348633 6.021575927734375 21.00059700012207 C 6.09666633605957 21.04572677612305 6.170586585998535 21.09007835388184 6.248395919799805 21.13325691223145 C 6.335536003112793 21.18305778503418 6.422686576843262 21.23129653930664 6.510605812072754 21.27836799621582 C 6.58841609954834 21.32077789306641 6.666226387023926 21.35967826843262 6.744035720825195 21.39858818054199 C 6.835455894470215 21.44371795654297 6.925716400146484 21.4872875213623 7.016366004943848 21.53007698059082 C 7.094956398010254 21.56718826293945 7.17392635345459 21.60322761535645 7.253286361694336 21.63823699951172 C 7.34549617767334 21.67713737487793 7.4384765625 21.7160472869873 7.531455993652344 21.75495719909668 C 7.61159610748291 21.78763771057129 7.69135570526123 21.81992721557617 7.772275924682617 21.85065841674805 C 7.866816520690918 21.88683700561523 7.962515830993652 21.92068672180176 8.058216094970703 21.95375823974609 C 8.139145851135254 21.98215675354004 8.220066070556641 22.01054763793945 8.302156448364258 22.03700828552246 C 8.399415969848633 22.06851768493652 8.498226165771484 22.0973072052002 8.59665584564209 22.12609672546387 C 8.677576065063477 22.14982795715332 8.758886337280273 22.17550659179688 8.837475776672363 22.19534683227539 C 8.868986129760742 22.20390701293945 8.900886535644531 22.21052742004395 8.932406425476074 22.21869659423828 Z"/></g></g></g></svg>