<svg xmlns="http://www.w3.org/2000/svg" width="120" height="120" viewBox="0 0 120 120">
  <path id="Icon_Face" data-name="Icon Face" d="M104.995,120H85a5,5,0,1,1,0-10h20a5.006,5.006,0,0,0,5-5V85a5,5,0,1,1,10,0v20a15.019,15.019,0,0,1-15,15ZM35,120H15a15.019,15.019,0,0,1-15-15V85a5,5,0,1,1,10,0v20a5.006,5.006,0,0,0,5,5H35a5,5,0,1,1,0,10Zm22.5-20a25.439,25.439,0,0,1-21.806-12.48,5.01,5.01,0,0,1,8.64-5.073,15.312,15.312,0,0,0,26.4,0,5,5,0,1,1,8.611,5.078A25.411,25.411,0,0,1,57.5,100ZM50,75H45a5,5,0,1,1,0-10h5a5.006,5.006,0,0,0,5-5V35a5,5,0,0,1,10,0V60A15.019,15.019,0,0,1,50,75ZM85,45a5.006,5.006,0,0,1-5-5V35a5,5,0,1,1,10,0v5A5.006,5.006,0,0,1,85,45ZM30,45a5.006,5.006,0,0,1-5-5V35a5,5,0,0,1,10,0v5A5.006,5.006,0,0,1,30,45Zm85-5a5.006,5.006,0,0,1-5-5V15a5.006,5.006,0,0,0-5-5H85A5,5,0,1,1,85,0h20a15.019,15.019,0,0,1,15,15V35A5.006,5.006,0,0,1,115,40ZM5,40a5.006,5.006,0,0,1-5-5V15A15.014,15.014,0,0,1,15,0H35a5,5,0,0,1,0,10H15a5.006,5.006,0,0,0-5,5V35a5.006,5.006,0,0,1-5,5Z" transform="translate(0.001 0.001)" fill="#fdb415"/>
</svg>
