<svg width="20" height="18" xmlns="http://www.w3.org/2000/svg" xmlns:xlink="http://www.w3.org/1999/xlink" xmlns:svgjs="http://svgjs.com/svgjs" viewBox="0.454 0 19.092 18" fill="#003167"><svg xmlns="http://www.w3.org/2000/svg" width="20" height="18" viewBox="0.811 0 18.845 17.767"><path paint-order="stroke fill markers" fill-rule="evenodd" d="M8.708 17.767H3.58a.961.961 0 0 1 0-1.924h5.128a.962.962 0 1 1 0 1.924zm-6.935-3.321a.962.962 0 0 1-.962-.962V8.356a.962.962 0 0 1 1.923 0v5.128a.96.96 0 0 1-.96.962zm16.921-6.07a.961.961 0 0 1-.96-.962V2.286a.961.961 0 1 1 1.922 0v5.128a.962.962 0 0 1-.962.962zM1.774 4.19a.963.963 0 0 1-.963-.962V.96C.81.43 1.242 0 1.773 0h2.861a.962.962 0 1 1 0 1.923h-1.9v1.305c0 .531-.43.962-.96.962zM14.89 1.923H9.762a.961.961 0 0 1 0-1.923h5.129a.96.96 0 1 1 0 1.923z"/></svg></svg>