<svg id="payments_black_24dp" xmlns="http://www.w3.org/2000/svg" width="50" height="50" viewBox="0 0 50 50">
  <rect id="Rectangle_1348" data-name="Rectangle 1348" width="50" height="50" fill="none"/>
  <path id="Path_2236" data-name="Path 2236" d="M40.273,30.25v-21c0-2.887-1.964-5.25-4.364-5.25H5.364C2.964,4,1,6.363,1,9.25v21c0,2.888,1.964,5.25,4.364,5.25H35.909C38.309,35.5,40.273,33.138,40.273,30.25Zm-4.364,0H5.364v-21H35.909ZM20.636,11.875c-3.622,0-6.545,3.517-6.545,7.875s2.924,7.875,6.545,7.875,6.545-3.517,6.545-7.875S24.258,11.875,20.636,11.875Zm28.364,0V40.75C49,43.638,47.036,46,44.636,46H7.545V40.75H44.636V11.875Z" transform="translate(0)" fill="#214497"/>
</svg>
