<svg id="api_black_24dp" xmlns="http://www.w3.org/2000/svg" width="50" height="50" viewBox="0 0 50 50">
  <rect id="Rectangle_1677" data-name="Rectangle 1677" width="50" height="50" fill="none"/>
  <path id="Path_4047" data-name="Path 4047" d="M29.364,25,25,29.364,20.636,25,25,20.636ZM25,11.909l4.625,4.625L35.08,11.08,25,1,14.92,11.08l5.455,5.455ZM11.909,25l4.625-4.625L11.08,14.92,1,25,11.08,35.08l5.455-5.455Zm26.182,0-4.625,4.625L38.92,35.08,49,25,38.92,14.92l-5.455,5.455ZM25,38.091l-4.625-4.625L14.92,38.92,25,49,35.08,38.92l-5.455-5.455Z" transform="translate(0 0)" fill="#214497"/>
</svg>
