<svg id="bx-cloud-upload" xmlns="http://www.w3.org/2000/svg" width="71.503" height="50.052" viewBox="0 0 71.503 50.052">
  <path id="Path_32" data-name="Path 32" d="M25.876,39.6V25.3H36.6L22.3,11,8,25.3H18.725V39.6Z" transform="translate(13.451 10.451)" fill="#bfbfbf"/>
  <path id="Path_33" data-name="Path 33" d="M19.876,55.052h7.15V47.9h-7.15A10.739,10.739,0,0,1,9.15,37.176c0-5.02,4.287-9.853,9.556-10.779l2.077-.365.686-1.995A16.922,16.922,0,0,1,37.751,12.15,17.9,17.9,0,0,1,55.627,30.026V33.6H59.2a7.15,7.15,0,1,1,0,14.3H48.477v7.15H59.2a14.3,14.3,0,0,0,3.375-28.2A25.06,25.06,0,0,0,37.751,5a24.1,24.1,0,0,0-22.32,14.837C7.752,22.132,2,29.382,2,37.176A17.9,17.9,0,0,0,19.876,55.052Z" transform="translate(-2 -5)" fill="#bfbfbf"/>
</svg>
