<svg id="cloud_upload_black_24dp" xmlns="http://www.w3.org/2000/svg" width="49" height="49" viewBox="0 0 49 49">
  <path id="Path_2009" data-name="Path 2009" d="M0,0H49V49H0Z" fill="none"/>
  <path id="Path_2010" data-name="Path 2010" d="M39.506,19.477C38.118,10.637,31.932,4,24.5,4,18.6,4,13.475,8.2,10.923,14.352,4.778,15.172,0,21.707,0,29.625,0,38.107,5.492,45,12.25,45H38.792C44.427,45,49,39.26,49,32.188,49,25.422,44.815,19.939,39.506,19.477Zm-.715,20.4H12.25c-4.512,0-8.167-4.587-8.167-10.25,0-5.253,3.124-9.635,7.268-10.173l2.185-.282,1.021-2.434c1.94-4.689,5.737-7.611,9.943-7.611,5.349,0,9.963,4.766,11,11.352l.612,3.844,3.124.282c3.185.256,5.676,3.613,5.676,7.585C44.917,36.416,42.16,39.875,38.792,39.875ZM16.333,27.063H21.54V34.75H27.46V27.063h5.206L24.5,16.813Z" fill="#214497"/>
</svg>
