<svg xmlns="http://www.w3.org/2000/svg" xmlns:xlink="http://www.w3.org/1999/xlink" width="110.312" height="63.371" viewBox="0 0 110.312 63.371"><defs><style>.a,.b{fill:none;}.a{stroke:#214497;}.c{clip-path:url(#a);}.d,.e{stroke:none;}.e{fill:#214497;}</style><clipPath id="a"><path class="a" d="M0,3.13A3.088,3.088,0,0,1,3.045,0H23.36A3.088,3.088,0,0,1,26.4,3.13V30.316a3.088,3.088,0,0,1-3.045,3.13H3.045A3.088,3.088,0,0,1,0,30.316Z"/></clipPath></defs><g class="b"><path class="d" d="M0,5.686A5.721,5.721,0,0,1,5.755,0h98.8a5.721,5.721,0,0,1,5.755,5.686v52a5.721,5.721,0,0,1-5.755,5.686H5.755A5.721,5.721,0,0,1,0,57.685Z"/><path class="e" d="M 5.755416870117188 1 C 3.133270263671875 1 1 3.102069854736328 1 5.685855865478516 L 1 57.68505477905273 C 1 60.26884078979492 3.133270263671875 62.37091064453125 5.755416870117188 62.37091064453125 L 104.556884765625 62.37091064453125 C 107.1790466308594 62.37091064453125 109.3123168945312 60.26884078979492 109.3123168945312 57.68505477905273 L 109.3123168945312 5.685840606689453 C 109.3123168945312 3.102054595947266 107.1790466308594 1 104.556884765625 1 L 5.755416870117188 1 M 5.755416870117188 0 L 104.556884765625 0 C 107.7355270385742 0 110.3123168945312 2.545642852783203 110.3123168945312 5.685840606689453 L 110.3123168945312 57.68505477905273 C 110.3123168945312 60.82527160644531 107.7355270385742 63.37091064453125 104.556884765625 63.37091064453125 L 5.755416870117188 63.37091064453125 C 2.576789855957031 63.37091064453125 0 60.82527160644531 0 57.68505477905273 L 0 5.685855865478516 C 0 2.545642852783203 2.576789855957031 0 5.755416870117188 0 Z"/></g><g transform="translate(9.22 13.496)"><g class="c"><g class="b"><path class="d" d="M0,3.13A3.088,3.088,0,0,1,3.045,0H23.36A3.088,3.088,0,0,1,26.4,3.13V30.316a3.088,3.088,0,0,1-3.045,3.13H3.045A3.088,3.088,0,0,1,0,30.316Z"/><path class="e" d="M 3.044523239135742 1 C 1.917171478271484 1 1.000001907348633 1.955429077148438 1.000001907348633 3.129819869995117 L 1.000001907348633 30.3159294128418 C 1.000001907348633 31.49032020568848 1.917171478271484 32.44575881958008 3.044523239135742 32.44575881958008 L 23.36002159118652 32.44575881958008 C 24.48737335205078 32.44575881958008 25.40454292297363 31.49032974243164 25.40454292297363 30.31593894958496 L 25.40454292297363 3.129829406738281 C 25.40454292297363 1.955438613891602 24.48737335205078 1 23.36002159118652 1 L 3.044523239135742 1 M 3.044523239135742 0 L 23.36002159118652 0 C 25.04146194458008 0 26.40454292297363 1.401268005371094 26.40454292297363 3.129829406738281 L 26.40454292297363 30.31593894958496 C 26.40454292297363 32.04449081420898 25.04146194458008 33.44575881958008 23.36002159118652 33.44575881958008 L 3.044523239135742 33.44575881958008 C 1.363082885742188 33.44575881958008 1.9073486328125e-06 32.04449081420898 1.9073486328125e-06 30.3159294128418 L 1.9073486328125e-06 3.129819869995117 C 1.9073486328125e-06 1.401268005371094 1.363073348999023 0 3.044523239135742 0 Z"/></g><g class="b" transform="translate(7.041 9.388)"><path class="d" d="M12.909,6.454A6.454,6.454,0,1,1,6.454,0,6.454,6.454,0,0,1,12.909,6.454Z"/><path class="e" d="M 6.454444408416748 1.000004768371582 C 3.446854591369629 1.000004768371582 1.000004768371582 3.446854591369629 1.000004768371582 6.454444408416748 C 1.000004768371582 9.462034225463867 3.446854591369629 11.90888404846191 6.454444408416748 11.90888404846191 C 9.462034225463867 11.90888404846191 11.90888404846191 9.462034225463867 11.90888404846191 6.454444408416748 C 11.90888404846191 3.446854591369629 9.462034225463867 1.000004768371582 6.454444408416748 1.000004768371582 M 6.454444408416748 4.76837158203125e-06 C 10.01913452148438 4.76837158203125e-06 12.90888404846191 2.889754295349121 12.90888404846191 6.454444408416748 C 12.90888404846191 10.01913452148438 10.01913452148438 12.90888404846191 6.454444408416748 12.90888404846191 C 2.889754295349121 12.90888404846191 4.76837158203125e-06 10.01913452148438 4.76837158203125e-06 6.454444408416748 C 4.76837158203125e-06 2.889754295349121 2.889754295349121 4.76837158203125e-06 6.454444408416748 4.76837158203125e-06 Z"/></g><g class="b" transform="translate(24.057 33.446) rotate(-180)"><path class="d" d="M21.124,0a9.5,9.5,0,0,1-.8,3.817,9.958,9.958,0,0,1-2.29,3.236A10.624,10.624,0,0,1,14.6,9.216a11.1,11.1,0,0,1-4.042.759A11.1,11.1,0,0,1,6.52,9.216,10.624,10.624,0,0,1,3.093,7.053,9.958,9.958,0,0,1,.8,3.817,9.5,9.5,0,0,1,0,0H21.124Z"/><path class="e" d="M 1.058956146240234 0.9999961853027344 C 1.157316207885742 1.828173637390137 1.378406524658203 2.637324810028076 1.719758987426758 3.415635585784912 C 2.199117660522461 4.508625507354736 2.892318725585938 5.487945556640625 3.780118942260742 6.326415538787842 C 4.672077178955078 7.168835639953613 5.71647834777832 7.827615737915039 6.884307861328125 8.284465789794922 C 8.055667877197266 8.742705345153809 9.29295825958252 8.975055694580078 10.56181812286377 8.975055694580078 C 11.83066844940186 8.975055694580078 13.06795787811279 8.742705345153809 14.23933792114258 8.284465789794922 C 15.40715789794922 7.827615737915039 16.45155715942383 7.168835639953613 17.34352874755859 6.326415538787842 C 18.2313175201416 5.487945556640625 18.92451858520508 4.508625507354736 19.40387725830078 3.415635585784912 C 19.74522972106934 2.637324810028076 19.9663200378418 1.828178405761719 20.06467819213867 1.000005722045898 L 1.058956146240234 0.9999961853027344 M -1.9073486328125e-06 -4.76837158203125e-06 L 21.12363815307617 5.7220458984375e-06 C 21.12363815307617 1.309945106506348 20.85044860839844 2.6070556640625 20.31966781616211 3.817285537719727 C 19.78888893127441 5.027515411376953 19.01090812683105 6.127155303955078 18.03014755249023 7.053425788879395 C 17.04939842224121 7.979695320129395 15.8850679397583 8.714455604553223 14.60364818572998 9.21574592590332 C 13.32222747802734 9.717035293579102 11.94881820678711 9.975055694580078 10.56181812286377 9.975055694580078 C 9.17481803894043 9.975055694580078 7.801398277282715 9.717035293579102 6.519988059997559 9.21574592590332 C 5.238568305969238 8.714455604553223 4.074237823486328 7.979695320129395 3.093488693237305 7.053425788879395 C 2.112728118896484 6.127155303955078 1.334747314453125 5.027515411376953 0.8039684295654297 3.817285537719727 C 0.2731876373291016 2.6070556640625 -1.9073486328125e-06 1.309945106506348 -1.9073486328125e-06 -4.76837158203125e-06 Z"/></g></g></g><g class="b" transform="translate(42.079 39.313)"><path class="d" d="M0,1.76A1.7,1.7,0,0,1,1.643,0H21.828a1.7,1.7,0,0,1,1.643,1.76,1.7,1.7,0,0,1-1.643,1.76H1.643A1.7,1.7,0,0,1,0,1.76Z"/><path class="e" d="M 1.642953872680664 1.000003099441528 C 1.288433074951172 1.000003099441528 1.000003814697266 1.341073036193848 1.000003814697266 1.760303139686584 C 1.000003814697266 2.179533004760742 1.288433074951172 2.520603179931641 1.642953872680664 2.520603179931641 L 21.82776260375977 2.520603179931641 C 22.18228340148926 2.520603179931641 22.470703125 2.179533004760742 22.470703125 1.760303139686584 C 22.470703125 1.341073036193848 22.18228340148926 1.000003099441528 21.82776260375977 1.000003099441528 L 1.642953872680664 1.000003099441528 M 1.642953872680664 3.099441528320312e-06 L 21.82776260375977 3.099441528320312e-06 C 22.73513412475586 3.099441528320312e-06 23.470703125 0.7881131172180176 23.470703125 1.760303139686584 C 23.470703125 2.732493162155151 22.73513412475586 3.520603179931641 21.82776260375977 3.520603179931641 L 1.642953872680664 3.520603179931641 C 0.7355728149414062 3.520603179931641 3.814697265625e-06 2.732493162155151 3.814697265625e-06 1.760303139686584 C 3.814697265625e-06 0.7881131172180176 0.7355728149414062 3.099441528320312e-06 1.642953872680664 3.099441528320312e-06 Z"/></g><g class="b" transform="translate(42.079 32.272)"><path class="d" d="M0,1.76A1.7,1.7,0,0,1,1.643,0H21.828a1.7,1.7,0,0,1,1.643,1.76,1.7,1.7,0,0,1-1.643,1.76H1.643A1.7,1.7,0,0,1,0,1.76Z"/><path class="e" d="M 1.642953872680664 1.000003099441528 C 1.288433074951172 1.000003099441528 1.000003814697266 1.341073036193848 1.000003814697266 1.760303139686584 C 1.000003814697266 2.179533004760742 1.288433074951172 2.520603179931641 1.642953872680664 2.520603179931641 L 21.82776260375977 2.520603179931641 C 22.18228340148926 2.520603179931641 22.470703125 2.179533004760742 22.470703125 1.760303139686584 C 22.470703125 1.341073036193848 22.18228340148926 1.000003099441528 21.82776260375977 1.000003099441528 L 1.642953872680664 1.000003099441528 M 1.642953872680664 3.099441528320312e-06 L 21.82776260375977 3.099441528320312e-06 C 22.73513412475586 3.099441528320312e-06 23.470703125 0.7881131172180176 23.470703125 1.760303139686584 C 23.470703125 2.732493162155151 22.73513412475586 3.520603179931641 21.82776260375977 3.520603179931641 L 1.642953872680664 3.520603179931641 C 0.7355728149414062 3.520603179931641 3.814697265625e-06 2.732493162155151 3.814697265625e-06 1.760303139686584 C 3.814697265625e-06 0.7881131172180176 0.7355728149414062 3.099441528320312e-06 1.642953872680664 3.099441528320312e-06 Z"/></g><g class="b" transform="translate(9.22 53.396)"><path class="d" d="M0,1.76A1.854,1.854,0,0,1,1.936,0H91.947a1.854,1.854,0,0,1,1.936,1.76,1.854,1.854,0,0,1-1.936,1.76H1.936A1.854,1.854,0,0,1,0,1.76Z"/><path class="e" d="M 1.93572998046875 1.000003099441528 C 1.419761657714844 1.000003099441528 1 1.341078042984009 1 1.760303139686584 C 1 2.17952823638916 1.419761657714844 2.520603179931641 1.93572998046875 2.520603179931641 L 91.94709777832031 2.520603179931641 C 92.46306610107422 2.520603179931641 92.88282775878906 2.17952823638916 92.88282775878906 1.760303139686584 C 92.88282775878906 1.341078042984009 92.46306610107422 1.000003099441528 91.94709777832031 1.000003099441528 L 1.93572998046875 1.000003099441528 M 1.93572998046875 3.099441528320312e-06 L 91.94709777832031 3.099441528320312e-06 C 93.01616668701172 3.099441528320312e-06 93.88282775878906 0.7881157398223877 93.88282775878906 1.760303139686584 C 93.88282775878906 2.732490539550781 93.01616668701172 3.520603179931641 91.94709777832031 3.520603179931641 L 1.93572998046875 3.520603179931641 C 0.8666534423828125 3.520603179931641 0 2.732490539550781 0 1.760303139686584 C 0 0.7881157398223877 0.8666534423828125 3.099441528320312e-06 1.93572998046875 3.099441528320312e-06 Z"/></g><g class="b" transform="translate(9.22 4.694)"><path class="d" d="M0,2.054A2,2,0,0,1,1.936,0H91.947a2,2,0,0,1,1.936,2.054,2,2,0,0,1-1.936,2.054H1.936A2,2,0,0,1,0,2.054Z"/><path class="e" d="M 1.93572998046875 0.9999992847442627 C 1.419761657714844 0.9999992847442627 1 1.472686767578125 1 2.053686857223511 C 1 2.634686946868896 1.419761657714844 3.107374429702759 1.93572998046875 3.107374429702759 L 91.94709777832031 3.107374429702759 C 92.46306610107422 3.107374429702759 92.88282775878906 2.634686946868896 92.88282775878906 2.053686857223511 C 92.88282775878906 1.472686767578125 92.46306610107422 0.9999992847442627 91.94709777832031 0.9999992847442627 L 1.93572998046875 0.9999992847442627 M 1.93572998046875 -4.76837158203125e-07 L 91.94709777832031 -4.76837158203125e-07 C 93.01616668701172 -4.76837158203125e-07 93.88282775878906 0.9194619655609131 93.88282775878906 2.053686857223511 C 93.88282775878906 3.187911987304688 93.01616668701172 4.10737419128418 91.94709777832031 4.10737419128418 L 1.93572998046875 4.10737419128418 C 0.8666534423828125 4.10737419128418 0 3.187911987304688 0 2.053686857223511 C 0 0.9194619655609131 0.8666534423828125 -4.76837158203125e-07 1.93572998046875 -4.76837158203125e-07 Z"/></g><g transform="translate(42.191 14.918)"><path class="a" d="M4,11.186H5.482v1.482H4Zm10.372,0h1.482v1.482H14.372ZM13.838,6H6.016L5.028,8.963h9.8Z" transform="translate(-2.518 -4.518)"/><path class="a" d="M15.907,8.56,14.725,5.013A1.479,1.479,0,0,0,13.319,4H5.5A1.479,1.479,0,0,0,4.092,5.013L2.909,8.56A1.482,1.482,0,0,0,2,9.927V12.89a1.476,1.476,0,0,0,.741,1.276v1.687a.74.74,0,0,0,.741.741h.741a.74.74,0,0,0,.741-.741V14.372h8.89v1.482a.74.74,0,0,0,.741.741h.741a.74.74,0,0,0,.741-.741V14.167a1.475,1.475,0,0,0,.741-1.276V9.927A1.482,1.482,0,0,0,15.907,8.56ZM4.963,12.149H3.482V10.668H4.963Zm8.756-3.7H4.509L5.5,5.482H13.32l.988,2.963Zm.134,3.7V10.668h1.482v1.482Z" transform="translate(-2 -4)"/></g></svg>