<svg xmlns="http://www.w3.org/2000/svg" width="75" height="91.667" viewBox="0 0 75 91.667">
  <g id="Group_4536" data-name="Group 4536" transform="translate(2891.4 -8819.111)">
    <g id="Path_1191" data-name="Path 1191" transform="translate(-2893 8816.023)" fill="#fdb415">
      <path d="M 37.56148910522461 90.29998779296875 L 13.18432140350342 71.43824768066406 L 6.285984992980957 21.61911773681641 L 37.55511856079102 11.3900146484375 L 71.90634155273438 21.62849807739258 L 64.2451171875 71.42317962646484 L 37.56148910522461 90.29998779296875 Z" stroke="none"/>
      <path d="M 37.56205749511719 11.91381072998047 L 6.83856201171875 21.96440887451172 L 13.65159606933594 71.1676025390625 L 37.57482528686523 89.6781005859375 L 63.78318786621094 71.13750457763672 L 71.34589385986328 21.98317718505859 L 37.56205749511719 11.91381072998047 M 37.54817581176758 10.8662109375 L 72.466796875 21.27379608154297 L 64.70703887939453 71.7088623046875 L 37.54817581176758 90.921875 L 12.71701049804688 71.7088623046875 L 5.7333984375 21.27379608154297 L 37.54817581176758 10.8662109375 Z" stroke="none" fill="#fdb415"/>
    </g>
    <path id="Icon_material-security" data-name="Icon material-security" d="M42,1.5,4.5,18.167v25c0,23.125,16,44.75,37.5,50,21.5-5.25,37.5-26.875,37.5-50v-25Zm0,45.792H71.167C68.958,64.458,57.5,79.75,42,84.542V47.333H12.833V23.583L42,10.625Z" transform="translate(-2895.9 8817.611)" fill="#214497"/>
  </g>
</svg>
