<svg id="Group_2102" data-name="Group 2102" xmlns="http://www.w3.org/2000/svg" width="50" height="49.732" viewBox="0 0 50 49.732">
  <circle id="Ellipse_48" data-name="Ellipse 48" cx="24.866" cy="24.866" r="24.866" transform="translate(0.268)" fill="#003167"/>
  <g id="account_circle_black_24dp">
    <path id="Path_1230" data-name="Path 1230" d="M0,0H49.732V49.732H0Z" fill="none"/>
    <path id="Path_1231" data-name="Path 1231" d="M24.866,2A22.866,22.866,0,1,0,47.732,24.866,22.874,22.874,0,0,0,24.866,2ZM13.593,39.226c.983-2.058,6.974-4.07,11.273-4.07s10.313,2.012,11.273,4.07a18.122,18.122,0,0,1-22.546,0ZM39.409,35.91c-3.27-3.979-11.2-5.328-14.543-5.328S13.593,31.932,10.323,35.91a18.293,18.293,0,1,1,29.086,0ZM24.866,11.146a8,8,0,1,0,8,8A7.983,7.983,0,0,0,24.866,11.146Zm0,11.433a3.43,3.43,0,1,1,3.43-3.43A3.425,3.425,0,0,1,24.866,22.579Z" fill="#fff"/>
  </g>
</svg>
