<svg xmlns="http://www.w3.org/2000/svg" xmlns:xlink="http://www.w3.org/1999/xlink" width="105.477" height="60.593" viewBox="0 0 105.477 60.593"><defs><style>.a,.b{fill:none;}.a{stroke:#707070;}.c{clip-path:url(#a);}.d,.e{stroke:none;}.e{fill:#707070;}</style><clipPath id="a"><path class="a" d="M0,2.993A2.953,2.953,0,0,1,2.911,0H22.336a2.953,2.953,0,0,1,2.911,2.993V28.987a2.953,2.953,0,0,1-2.911,2.993H2.911A2.953,2.953,0,0,1,0,28.987Z"/></clipPath></defs><g class="b"><path class="d" d="M0,5.437A5.47,5.47,0,0,1,5.5,0h94.47a5.47,5.47,0,0,1,5.5,5.437v49.72a5.47,5.47,0,0,1-5.5,5.437H5.5A5.47,5.47,0,0,1,0,55.156Z"/><path class="e" d="M 5.503128051757812 0.9999923706054688 C 3.020103454589844 0.9999923706054688 1 2.990249633789062 1 5.436592102050781 L 1 55.15632247924805 C 1 57.60266494750977 3.020103454589844 59.59292221069336 5.503128051757812 59.59292221069336 L 99.97344970703125 59.59292221069336 C 102.4564743041992 59.59292221069336 104.4765777587891 57.60266494750977 104.4765777587891 55.15632247924805 L 104.4765777587891 5.436592102050781 C 104.4765777587891 2.990249633789062 102.4564743041992 0.9999923706054688 99.97344970703125 0.9999923706054688 L 5.503128051757812 0.9999923706054688 M 5.503128051757812 -7.62939453125e-06 L 99.97344970703125 -7.62939453125e-06 C 103.0127487182617 -7.62939453125e-06 105.4765777587891 2.434051513671875 105.4765777587891 5.436592102050781 L 105.4765777587891 55.15632247924805 C 105.4765777587891 58.15887832641602 103.0127487182617 60.59292221069336 99.97344970703125 60.59292221069336 L 5.503128051757812 60.59292221069336 C 2.463829040527344 60.59292221069336 0 58.15887832641602 0 55.15632247924805 L 0 5.436592102050781 C 0 2.434051513671875 2.463829040527344 -7.62939453125e-06 5.503128051757812 -7.62939453125e-06 Z"/></g><g transform="translate(8.816 12.904)"><g class="c"><g class="b"><path class="d" d="M0,2.993A2.953,2.953,0,0,1,2.911,0H22.336a2.953,2.953,0,0,1,2.911,2.993V28.987a2.953,2.953,0,0,1-2.911,2.993H2.911A2.953,2.953,0,0,1,0,28.987Z"/><path class="e" d="M 2.911056518554688 1.000001907348633 C 1.857295989990234 1.000001907348633 0.9999961853027344 1.893892288208008 0.9999961853027344 2.992620468139648 L 0.9999961853027344 28.98697090148926 C 0.9999961853027344 30.0857105255127 1.857295989990234 30.97960090637207 2.911066055297852 30.97960090637207 L 22.33599662780762 30.97960090637207 C 23.38975715637207 30.97960090637207 24.24705696105957 30.0857105255127 24.24705696105957 28.98698043823242 L 24.24705696105957 2.992620468139648 C 24.24705696105957 1.893892288208008 23.38975715637207 1.000001907348633 22.33599662780762 1.000001907348633 L 2.911056518554688 1.000001907348633 M 2.911056518554688 1.9073486328125e-06 L 22.33599662780762 1.9073486328125e-06 C 23.9437255859375 1.9073486328125e-06 25.24705696105957 1.339841842651367 25.24705696105957 2.992620468139648 L 25.24705696105957 28.98698043823242 C 25.24705696105957 30.63976097106934 23.9437255859375 31.97960090637207 22.33599662780762 31.97960090637207 L 2.911066055297852 31.97960090637207 C 1.303325653076172 31.97960090637207 -3.814697265625e-06 30.63976097106934 -3.814697265625e-06 28.98697090148926 L -3.814697265625e-06 2.992620468139648 C -3.814697265625e-06 1.339841842651367 1.303325653076172 1.9073486328125e-06 2.911056518554688 1.9073486328125e-06 Z"/></g><g class="b" transform="translate(6.733 8.977)"><path class="d" d="M12.343,6.172A6.172,6.172,0,1,1,6.172,0,6.172,6.172,0,0,1,12.343,6.172Z"/><path class="e" d="M 6.171501636505127 1.000001907348633 C 3.319931983947754 1.000001907348633 1.000001907348633 3.319931983947754 1.000001907348633 6.171501636505127 C 1.000001907348633 9.0230712890625 3.319931983947754 11.34300136566162 6.171501636505127 11.34300136566162 C 9.0230712890625 11.34300136566162 11.34300136566162 9.0230712890625 11.34300136566162 6.171501636505127 C 11.34300136566162 3.319931983947754 9.0230712890625 1.000001907348633 6.171501636505127 1.000001907348633 M 6.171501636505127 1.9073486328125e-06 C 9.579931259155273 1.9073486328125e-06 12.34300136566162 2.76307201385498 12.34300136566162 6.171501636505127 C 12.34300136566162 9.579931259155273 9.579931259155273 12.34300136566162 6.171501636505127 12.34300136566162 C 2.76307201385498 12.34300136566162 1.9073486328125e-06 9.579931259155273 1.9073486328125e-06 6.171501636505127 C 1.9073486328125e-06 2.76307201385498 2.76307201385498 1.9073486328125e-06 6.171501636505127 1.9073486328125e-06 Z"/></g><g class="b" transform="translate(23.003 31.98) rotate(-180)"><path class="d" d="M20.2,0a9.08,9.08,0,0,1-.769,3.65A9.521,9.521,0,0,1,17.24,6.744a10.158,10.158,0,0,1-3.276,2.068,10.617,10.617,0,0,1-3.865.726,10.617,10.617,0,0,1-3.865-.726A10.158,10.158,0,0,1,2.958,6.744,9.521,9.521,0,0,1,.769,3.65,9.08,9.08,0,0,1,0,0H20.2Z"/><path class="e" d="M 1.062047958374023 0.9999980926513672 C 1.158390045166016 1.770504951477051 1.366615295410156 2.523456573486328 1.684511184692383 3.248298168182373 C 2.140491485595703 4.287958145141602 2.799932479858398 5.219557762145996 3.644491195678711 6.017208099365234 C 4.493271827697754 6.818828105926514 5.487141609191895 7.445717811584473 6.598491668701172 7.88048791885376 C 7.713371276855469 8.316627502441406 8.891061782836914 8.537777900695801 10.09882164001465 8.537777900695801 C 11.30658149719238 8.537777900695801 12.48427200317383 8.316627502441406 13.59915161132812 7.880477905273438 C 14.7105016708374 7.445717811584473 15.70437145233154 6.818828105926514 16.55314254760742 6.017218112945557 C 17.3977222442627 5.219557762145996 18.05715179443359 4.287958145141602 18.51312255859375 3.248298168182373 C 18.83101844787598 2.523463726043701 19.03924751281738 1.7705078125 19.13559532165527 0.9999980926513672 L 1.062047958374023 0.9999980926513672 M 1.9073486328125e-06 -1.9073486328125e-06 L 20.19764137268066 -1.9073486328125e-06 C 20.19764137268066 1.252517700195312 19.93643188476562 2.492767810821533 19.42891120910645 3.649948120117188 C 18.92140197753906 4.807127952575684 18.17753219604492 5.85855770111084 17.23977088928223 6.744227886199951 C 16.302001953125 7.62988805770874 15.18872165679932 8.332437515258789 13.96347141265869 8.811758041381836 C 12.73823165893555 9.291077613830566 11.42502117156982 9.537777900695801 10.09882164001465 9.537777900695801 C 8.772622108459473 9.537777900695801 7.45941162109375 9.291077613830566 6.234171867370605 8.811758041381836 C 5.00892162322998 8.332437515258789 3.895641326904297 7.62988805770874 2.95787239074707 6.744227886199951 C 2.020111083984375 5.85855770111084 1.276241302490234 4.807127952575684 0.7687225341796875 3.649948120117188 C 0.2612113952636719 2.492767810821533 1.9073486328125e-06 1.252517700195312 1.9073486328125e-06 -1.9073486328125e-06 Z"/></g></g></g><g class="b" transform="translate(40.234 23.003)"><path class="d" d="M0,1.683A1.643,1.643,0,0,1,1.6,0H30.381a1.643,1.643,0,0,1,1.6,1.683,1.643,1.643,0,0,1-1.6,1.683H1.6A1.643,1.643,0,0,1,0,1.683Z"/><path class="e" d="M 1.598981857299805 0.9999971389770508 C 1.268701553344727 0.9999971389770508 1.000001907348633 1.306457042694092 1.000001907348633 1.683137059211731 C 1.000001907348633 2.05981707572937 1.268701553344727 2.366276979446411 1.598981857299805 2.366276979446411 L 30.3806209564209 2.366276979446411 C 30.71090126037598 2.366276979446411 30.97960090637207 2.05981707572937 30.97960090637207 1.683137059211731 C 30.97960090637207 1.306457042694092 30.71089172363281 0.9999971389770508 30.38061141967773 0.9999971389770508 L 1.598981857299805 0.9999971389770508 M 1.598981857299805 -2.86102294921875e-06 L 30.38061141967773 -2.86102294921875e-06 C 31.26371192932129 -2.86102294921875e-06 31.97960090637207 0.7535669803619385 31.97960090637207 1.683137059211731 C 31.97960090637207 2.612707138061523 31.26371192932129 3.366276979446411 30.3806209564209 3.366276979446411 L 1.598981857299805 3.366276979446411 C 0.7158908843994141 3.366276979446411 1.9073486328125e-06 2.612707138061523 1.9073486328125e-06 1.683137059211731 C 1.9073486328125e-06 0.7535669803619385 0.7158908843994141 -2.86102294921875e-06 1.598981857299805 -2.86102294921875e-06 Z"/></g><g class="b" transform="translate(40.234 16.27)"><path class="d" d="M0,1.964A1.81,1.81,0,0,1,1.6,0H30.381a1.81,1.81,0,0,1,1.6,1.964,1.81,1.81,0,0,1-1.6,1.964H1.6A1.81,1.81,0,0,1,0,1.964Z"/><path class="e" d="M 1.598981857299805 0.9999997615814209 C 1.316230773925781 0.9999997615814209 1.000001907348633 1.41211986541748 1.000001907348633 1.963659763336182 C 1.000001907348633 2.515199661254883 1.316230773925781 2.927319765090942 1.598981857299805 2.927319765090942 L 30.3806209564209 2.927319765090942 C 30.66337203979492 2.927319765090942 30.97960090637207 2.515199661254883 30.97960090637207 1.963659763336182 C 30.97960090637207 1.41211986541748 30.66336059570312 0.9999997615814209 30.38061141967773 0.9999997615814209 L 1.598981857299805 0.9999997615814209 M 1.598981857299805 -2.384185791015625e-07 L 30.38061141967773 -2.384185791015625e-07 C 31.26371192932129 -2.384185791015625e-07 31.97960090637207 0.879159688949585 31.97960090637207 1.963659763336182 C 31.97960090637207 3.048159837722778 31.26371192932129 3.927319765090942 30.3806209564209 3.927319765090942 L 1.598981857299805 3.927319765090942 C 0.7158908843994141 3.927319765090942 1.9073486328125e-06 3.048159837722778 1.9073486328125e-06 1.963659763336182 C 1.9073486328125e-06 0.879159688949585 0.7158908843994141 -2.384185791015625e-07 1.598981857299805 -2.384185791015625e-07 Z"/></g><g class="b" transform="translate(40.234 37.59)"><path class="d" d="M0,1.683A1.63,1.63,0,0,1,1.571,0h19.3a1.63,1.63,0,0,1,1.571,1.683,1.63,1.63,0,0,1-1.571,1.683H1.571A1.63,1.63,0,0,1,0,1.683Z"/><path class="e" d="M 1.570932388305664 0.9999971389770508 C 1.256122589111328 0.9999971389770508 1.000003814697266 1.306457042694092 1.000003814697266 1.683137059211731 C 1.000003814697266 2.05981707572937 1.256122589111328 2.366276979446411 1.570932388305664 2.366276979446411 L 20.87090301513672 2.366276979446411 C 21.18571281433105 2.366276979446411 21.44182205200195 2.05981707572937 21.44182205200195 1.683137059211731 C 21.44182205200195 1.306457042694092 21.18571281433105 0.9999971389770508 20.87090301513672 0.9999971389770508 L 1.570932388305664 0.9999971389770508 M 1.570932388305664 -2.86102294921875e-06 L 20.87090301513672 -2.86102294921875e-06 C 21.73849296569824 -2.86102294921875e-06 22.44182205200195 0.7535669803619385 22.44182205200195 1.683137059211731 C 22.44182205200195 2.612707138061523 21.73849296569824 3.366276979446411 20.87090301513672 3.366276979446411 L 1.570932388305664 3.366276979446411 C 0.7033329010009766 3.366276979446411 3.814697265625e-06 2.612707138061523 3.814697265625e-06 1.683137059211731 C 3.814697265625e-06 0.7535669803619385 0.7033329010009766 -2.86102294921875e-06 1.570932388305664 -2.86102294921875e-06 Z"/></g><g class="b" transform="translate(40.234 30.858)"><path class="d" d="M0,1.683A1.63,1.63,0,0,1,1.571,0h19.3a1.63,1.63,0,0,1,1.571,1.683,1.63,1.63,0,0,1-1.571,1.683H1.571A1.63,1.63,0,0,1,0,1.683Z"/><path class="e" d="M 1.570932388305664 0.9999971389770508 C 1.256122589111328 0.9999971389770508 1.000003814697266 1.306457042694092 1.000003814697266 1.683137059211731 C 1.000003814697266 2.05981707572937 1.256122589111328 2.366276979446411 1.570932388305664 2.366276979446411 L 20.87090301513672 2.366276979446411 C 21.18571281433105 2.366276979446411 21.44182205200195 2.05981707572937 21.44182205200195 1.683137059211731 C 21.44182205200195 1.306457042694092 21.18571281433105 0.9999971389770508 20.87090301513672 0.9999971389770508 L 1.570932388305664 0.9999971389770508 M 1.570932388305664 -2.86102294921875e-06 L 20.87090301513672 -2.86102294921875e-06 C 21.73849296569824 -2.86102294921875e-06 22.44182205200195 0.7535669803619385 22.44182205200195 1.683137059211731 C 22.44182205200195 2.612707138061523 21.73849296569824 3.366276979446411 20.87090301513672 3.366276979446411 L 1.570932388305664 3.366276979446411 C 0.7033329010009766 3.366276979446411 3.814697265625e-06 2.612707138061523 3.814697265625e-06 1.683137059211731 C 3.814697265625e-06 0.7535669803619385 0.7033329010009766 -2.86102294921875e-06 1.570932388305664 -2.86102294921875e-06 Z"/></g><g class="b" transform="translate(8.816 51.055)"><path class="d" d="M0,1.683A1.773,1.773,0,0,1,1.851,0H87.916a1.773,1.773,0,0,1,1.851,1.683,1.773,1.773,0,0,1-1.851,1.683H1.851A1.773,1.773,0,0,1,0,1.683Z"/><path class="e" d="M 1.850875854492188 0.9999995231628418 C 1.3896484375 0.9999995231628418 1 1.31283712387085 1 1.683137059211731 C 1 2.053437232971191 1.3896484375 2.36627459526062 1.850875854492188 2.36627459526062 L 87.91644287109375 2.36627459526062 C 88.37765502929688 2.36627459526062 88.76730346679688 2.053437232971191 88.76730346679688 1.683137059211731 C 88.76730346679688 1.31283712387085 88.37765502929688 0.9999995231628418 87.91644287109375 0.9999995231628418 L 1.850875854492188 0.9999995231628418 M 1.850875854492188 -4.76837158203125e-07 L 87.91644287109375 -4.76837158203125e-07 C 88.93863677978516 -4.76837158203125e-07 89.76730346679688 0.7535619735717773 89.76730346679688 1.683137059211731 C 89.76730346679688 2.612712144851685 88.93863677978516 3.36627459526062 87.91644287109375 3.36627459526062 L 1.850875854492188 3.36627459526062 C 0.8286666870117188 3.36627459526062 0 2.612712144851685 0 1.683137059211731 C 0 0.7535619735717773 0.8286666870117188 -4.76837158203125e-07 1.850875854492188 -4.76837158203125e-07 Z"/></g><g class="b" transform="translate(8.816 4.488)"><path class="d" d="M0,1.964A1.91,1.91,0,0,1,1.851,0H87.916a1.91,1.91,0,0,1,1.851,1.964,1.91,1.91,0,0,1-1.851,1.964H1.851A1.91,1.91,0,0,1,0,1.964Z"/><path class="e" d="M 1.850875854492188 0.9999973773956299 C 1.381698608398438 0.9999973773956299 1 1.432297229766846 1 1.963659763336182 C 1 2.495022296905518 1.381698608398438 2.927322387695312 1.850875854492188 2.927322387695312 L 87.91644287109375 2.927322387695312 C 88.38560485839844 2.927322387695312 88.76730346679688 2.495022296905518 88.76730346679688 1.963659763336182 C 88.76730346679688 1.432297229766846 88.38560485839844 0.9999973773956299 87.91644287109375 0.9999973773956299 L 1.850875854492188 0.9999973773956299 M 1.850875854492188 -2.622604370117188e-06 L 87.91644287109375 -2.622604370117188e-06 C 88.93863677978516 -2.622604370117188e-06 89.76730346679688 0.879159688949585 89.76730346679688 1.963659763336182 C 89.76730346679688 3.048159837722778 88.93863677978516 3.927322149276733 87.91644287109375 3.927322149276733 L 1.850875854492188 3.927322149276733 C 0.8286666870117188 3.927322149276733 0 3.048159837722778 0 1.963659763336182 C 0 0.879159688949585 0.8286666870117188 -2.622604370117188e-06 1.850875854492188 -2.622604370117188e-06 Z"/></g></svg>