<svg xmlns="http://www.w3.org/2000/svg" width="20.5" height="23.999" viewBox="0 0 20.5 23.999">
  <g id="Group_4532" data-name="Group 4532" transform="translate(-22161.961 -12459)">
    <g id="Button" transform="translate(22182.461 12471) rotate(90)">
      <path id="Arrow" d="M9.537,20.083.292,10.946a.975.975,0,0,1,0-1.392L9.537.417a1.456,1.456,0,0,1,2.041,0,1.415,1.415,0,0,1,0,2.016L3.669,10.25l7.909,7.815a1.417,1.417,0,0,1,0,2.017A1.456,1.456,0,0,1,9.537,20.083Z" fill="#bfbfbf"/>
    </g>
    <g id="Button-2" data-name="Button" transform="translate(22182.461 12459) rotate(90)">
      <path id="Arrow-2" data-name="Arrow" d="M9.537,20.083.292,10.946a.975.975,0,0,1,0-1.392L9.537.417a1.456,1.456,0,0,1,2.041,0,1.415,1.415,0,0,1,0,2.016L3.669,10.25l7.909,7.815a1.417,1.417,0,0,1,0,2.017A1.456,1.456,0,0,1,9.537,20.083Z" fill="#bfbfbf"/>
    </g>
  </g>
</svg>
