<svg xmlns="http://www.w3.org/2000/svg" width="24" height="24" viewBox="0 0 24 24">
  <g id="Group_4207" data-name="Group 4207">
    <g id="Group_4206" data-name="Group 4206">
      <g id="mail_black_24dp">
        <path id="Path_2646" data-name="Path 2646" d="M0,0H24V24H0Z" fill="rgba(0,0,0,0)"/>
        <path id="Path_2647" data-name="Path 2647" d="M22,6a2.006,2.006,0,0,0-2-2H4A2.006,2.006,0,0,0,2,6V18a2.006,2.006,0,0,0,2,2H20a2.006,2.006,0,0,0,2-2ZM20,6l-8,4.99L4,6Zm0,12H4V8l8,5,8-5Z" fill="#bfbfbf"/>
      </g>
      <path id="Path_3811" data-name="Path 3811" d="M0,0V5" transform="translate(16.5 11.5)" fill="#bfbfbf" stroke="#bfbfbf" stroke-width="2"/>
      <line id="Line_34" data-name="Line 34" x2="5" transform="translate(14 14)" fill="none" stroke="#bfbfbf" stroke-width="2"/>
    </g>
  </g>
</svg>
