<svg xmlns="http://www.w3.org/2000/svg" width="100" height="100" viewBox="0 0 100 100">
  <path id="Icon_material-perm-identity" data-name="Icon material-perm-identity" d="M56,17.875A13.125,13.125,0,1,1,42.875,31,13.123,13.123,0,0,1,56,17.875m0,56.25c18.562,0,38.125,9.125,38.125,13.125v6.875H17.875V87.25c0-4,19.563-13.125,38.125-13.125M56,6A25,25,0,1,0,81,31,24.993,24.993,0,0,0,56,6Zm0,56.25c-16.688,0-50,8.375-50,25V106H106V87.25C106,70.625,72.688,62.25,56,62.25Z" transform="translate(-6 -6)" fill="#003167"/>
</svg>
